<svg width="30" height="31" viewBox="0 0 30 31" fill="none" xmlns="http://www.w3.org/2000/svg">
<path d="M12.5 4.09271H5C4.66848 4.09271 4.35054 4.22441 4.11612 4.45883C3.8817 4.69325 3.75 5.01119 3.75 5.34271V12.8427C3.75 13.1742 3.8817 13.4922 4.11612 13.7266C4.35054 13.961 4.66848 14.0927 5 14.0927H12.5C12.8315 14.0927 13.1495 13.961 13.3839 13.7266C13.6183 13.4922 13.75 13.1742 13.75 12.8427V5.34271C13.75 5.01119 13.6183 4.69325 13.3839 4.45883C13.1495 4.22441 12.8315 4.09271 12.5 4.09271ZM25 4.09271H17.5C17.1685 4.09271 16.8505 4.22441 16.6161 4.45883C16.3817 4.69325 16.25 5.01119 16.25 5.34271V12.8427C16.25 13.1742 16.3817 13.4922 16.6161 13.7266C16.8505 13.961 17.1685 14.0927 17.5 14.0927H25C25.3315 14.0927 25.6495 13.961 25.8839 13.7266C26.1183 13.4922 26.25 13.1742 26.25 12.8427V5.34271C26.25 5.01119 26.1183 4.69325 25.8839 4.45883C25.6495 4.22441 25.3315 4.09271 25 4.09271ZM12.5 16.5927H5C4.66848 16.5927 4.35054 16.7244 4.11612 16.9588C3.8817 17.1932 3.75 17.5112 3.75 17.8427V25.3427C3.75 25.6742 3.8817 25.9922 4.11612 26.2266C4.35054 26.461 4.66848 26.5927 5 26.5927H12.5C12.8315 26.5927 13.1495 26.461 13.3839 26.2266C13.6183 25.9922 13.75 25.6742 13.75 25.3427V17.8427C13.75 17.5112 13.6183 17.1932 13.3839 16.9588C13.1495 16.7244 12.8315 16.5927 12.5 16.5927ZM21.25 16.5927C22.2283 16.5927 23.185 16.8797 24.0018 17.4181C24.8186 17.9565 25.4595 18.7226 25.8451 19.6217C26.2307 20.5207 26.3442 21.5131 26.1714 22.476C25.9985 23.4389 25.5471 24.3299 24.8728 25.0387C24.1986 25.7475 23.3313 26.243 22.3783 26.4638C21.4252 26.6845 20.4284 26.6208 19.5112 26.2806C18.594 25.9404 17.7967 25.3386 17.2182 24.5498C16.6396 23.761 16.3052 22.8197 16.2563 21.8427L16.25 21.5927L16.2563 21.3427C16.3204 20.0615 16.8745 18.854 17.804 17.9699C18.7335 17.0858 19.9672 16.5927 21.25 16.5927Z" fill="white"/>
</svg>
