<svg width="32" height="32" viewBox="0 0 32 32" fill="none" xmlns="http://www.w3.org/2000/svg">
<rect width="32" height="32" rx="16" fill="#11B57B"/>
<path d="M13.9583 18.625L21.0208 11.5625C21.1875 11.3958 21.3819 11.3125 21.6042 11.3125C21.8264 11.3125 22.0208 11.3958 22.1875 11.5625C22.3542 11.7292 22.4375 11.9272 22.4375 12.1567C22.4375 12.3861 22.3542 12.5839 22.1875 12.75L14.5417 20.4167C14.375 20.5833 14.1805 20.6667 13.9583 20.6667C13.7361 20.6667 13.5417 20.5833 13.375 20.4167L9.79165 16.8333C9.62499 16.6667 9.54499 16.4689 9.55165 16.24C9.55832 16.0111 9.64527 15.8131 9.81249 15.6458C9.97971 15.4786 10.1778 15.3953 10.4067 15.3958C10.6355 15.3964 10.8333 15.4797 11 15.6458L13.9583 18.625Z" fill="white"/>
</svg>
