<svg width="308" height="324" viewBox="0 0 308 324" fill="none" xmlns="http://www.w3.org/2000/svg">
<path d="M48.5479 224.918C16.6255 187.329 27.8113 131.613 46.8109 114.731C65.8105 97.8484 95.9617 88.5736 112.117 68.8462C128.272 49.1188 146.874 34.9948 180.883 45.1738C214.892 55.3528 214.384 81.7942 224.587 98.1532C234.79 114.513 280.274 123.65 277.684 165.634C275.093 207.618 246.224 207.546 233.057 217.89C219.89 228.233 199.124 277.079 157.562 277.588C106.628 278.212 75.5641 256.73 48.5479 224.918Z" fill="#EEEEFF"/>
<g opacity="0.3">
<path d="M163.578 22.5645L161.78 28.8213C160.132 29.2695 158.563 29.9073 157.11 30.7239L151.346 27.5589L146.194 32.6451L149.4 38.3349C148.573 39.7701 147.927 41.3187 147.473 42.9453L141.135 44.7201V51.9285L147.473 53.7033C147.927 55.3299 148.573 56.8785 149.4 58.3137L146.194 64.0035L151.346 69.0897L157.11 65.9247C158.563 66.7413 160.132 67.3791 161.78 67.8273L163.578 74.0841H170.88L172.677 67.8273C174.325 67.3791 175.894 66.7413 177.348 65.9247L183.111 69.0897L188.263 64.0035L185.057 58.3137C185.884 56.8785 186.531 55.3299 186.984 53.7033L193.323 51.9285V44.7201L186.984 42.9453C186.53 41.3187 185.884 39.7701 185.057 38.3349L188.263 32.6451L183.111 27.5589L177.348 30.7239C175.894 29.9073 174.325 29.2695 172.677 28.8213L170.88 22.5645H163.578ZM167.229 34.8627C174.738 34.8627 180.865 40.9113 180.865 48.3243C180.865 55.7367 174.738 61.7859 167.229 61.7859C159.72 61.7859 153.592 55.7373 153.592 48.3243C153.592 40.9113 159.72 34.8627 167.229 34.8627Z" stroke="#7371FC" stroke-miterlimit="10"/>
</g>
<g opacity="0.3">
<path d="M270.147 141.148L268.95 145.311C267.853 145.609 266.81 146.034 265.842 146.577L262.007 144.471L258.579 147.856L260.712 151.642C260.162 152.597 259.732 153.627 259.429 154.71L255.212 155.89V160.687L259.429 161.868C259.732 162.95 260.161 163.981 260.712 164.935L258.579 168.721L262.007 172.106L265.842 170C266.809 170.544 267.853 170.968 268.95 171.266L270.147 175.429H275.005L276.202 171.266C277.298 170.968 278.342 170.543 279.309 170L283.144 172.106L286.573 168.721L284.439 164.935C284.989 163.98 285.42 162.95 285.722 161.868L289.939 160.687V155.89L285.722 154.71C285.42 153.627 284.99 152.596 284.439 151.642L286.573 147.856L283.144 144.471L279.309 146.577C278.342 146.034 277.298 145.609 276.202 145.311L275.005 141.148H270.147ZM272.576 149.332C277.573 149.332 281.65 153.357 281.65 158.289C281.65 163.222 277.573 167.247 272.576 167.247C267.579 167.247 263.502 163.222 263.502 158.289C263.503 153.357 267.58 149.332 272.576 149.332Z" stroke="#7371FC" stroke-miterlimit="10"/>
</g>
<g opacity="0.3">
<path d="M52.3225 152.112L49.7233 161.159C47.3407 161.807 45.0726 162.73 42.9702 163.91L34.6363 159.334L27.1867 166.688L31.8222 174.915C30.6264 176.99 29.6916 179.229 29.0352 181.581L19.8708 184.148V194.57L29.0352 197.136C29.6916 199.488 30.6264 201.728 31.8222 203.802L27.1867 212.03L34.6363 219.384L42.9702 214.808C45.072 215.988 47.3407 216.911 49.7233 217.559L52.3225 226.605H62.8807L65.4799 217.559C67.8625 216.911 70.1305 215.988 72.2329 214.808L80.5669 219.384L88.0165 212.03L83.3803 203.802C84.5761 201.728 85.5109 199.488 86.1673 197.136L95.3317 194.571V184.148L86.1673 181.582C85.5109 179.23 84.5767 176.991 83.3803 174.916L88.0165 166.689L80.5669 159.335L72.2329 163.911C70.1311 162.73 67.8625 161.808 65.4799 161.16L62.8807 152.113H52.3225V152.112ZM57.6013 169.895C68.4589 169.895 77.3179 178.64 77.3179 189.359C77.3179 200.077 68.4583 208.823 57.6013 208.823C46.7436 208.823 37.8846 200.077 37.8846 189.359C37.8846 178.64 46.7443 169.895 57.6013 169.895Z" stroke="#7371FC" stroke-miterlimit="10"/>
</g>
<path d="M146.225 268.257C147.578 265.136 150.131 262.646 153.344 261.311L153.444 261.269L153.011 261.076C149.999 259.731 147.604 257.361 146.284 254.415L146.224 254.282L145.891 254.94C144.609 257.469 142.516 259.529 139.925 260.813L139.004 261.269L139.06 261.291C142.144 262.563 144.629 264.899 146.029 267.846L146.225 268.257Z" fill="#32338C"/>
<path d="M155.307 272.541C155.984 270.98 157.26 269.735 158.867 269.068L158.917 269.048L158.701 268.951C157.195 268.279 155.997 267.093 155.337 265.62L155.307 265.553L155.14 265.883C154.499 267.147 153.453 268.177 152.158 268.819L151.697 269.047L151.725 269.058C153.267 269.694 154.509 270.863 155.21 272.336L155.307 272.541Z" fill="#7371FC"/>
<path d="M271.82 92.2324C270.809 89.899 268.9 88.0372 266.497 87.0394L266.423 87.0088L266.746 86.8642C268.998 85.8592 270.788 84.0862 271.776 81.8842L271.821 81.784L272.07 82.276C273.029 84.1666 274.593 85.7074 276.53 86.6668L277.218 87.0082L277.177 87.025C274.872 87.9754 273.014 89.7226 271.967 91.9258L271.82 92.2324Z" fill="#7371FC"/>
<path d="M265.03 95.4352C264.524 94.2688 263.57 93.3376 262.369 92.839L262.331 92.8234L262.493 92.7514C263.62 92.2486 264.515 91.3624 265.008 90.2614L265.03 90.2116L265.155 90.4576C265.634 91.4032 266.417 92.173 267.385 92.653L267.73 92.8234L267.709 92.8318C266.556 93.307 265.627 94.1806 265.103 95.2822L265.03 95.4352Z" fill="#32338C"/>
<path d="M32.2158 144.771C31.2042 142.437 29.2956 140.576 26.8926 139.578L26.8176 139.547L27.141 139.403C29.3928 138.398 31.1838 136.625 32.1708 134.423L32.2158 134.322L32.4654 134.814C33.4236 136.705 34.9884 138.246 36.9252 139.205L37.6134 139.546L37.572 139.563C35.2662 140.513 33.4086 142.26 32.3616 144.464L32.2158 144.771Z" fill="#7371FC"/>
<path d="M25.4256 147.974C24.9198 146.807 23.9658 145.876 22.764 145.377L22.7268 145.362L22.8882 145.29C24.0144 144.787 24.9096 143.901 25.4028 142.8L25.425 142.75L25.5498 142.996C26.0292 143.942 26.8116 144.711 27.78 145.191L28.1244 145.362L28.1034 145.37C26.9502 145.845 26.022 146.719 25.4982 147.821L25.4256 147.974Z" fill="#32338C"/>
<g filter="url(#filter0_d_44_1571)">
<path d="M214.677 70.4158C219.096 70.9792 223.341 72.4252 227.295 74.4766C238.79 80.4388 249.129 88.6192 257.574 98.4346C260.983 102.398 264.202 106.905 264.736 112.106C265.348 118.061 262.355 123.727 259.456 128.964C257.041 133.325 254.129 138.09 249.308 139.355C245.357 140.392 241.218 138.735 237.649 136.748C223.696 128.983 213.234 115.728 207.231 100.931C204.315 93.7438 203.232 86.917 203.728 79.219C203.868 77.0644 198.222 76.8652 199.737 75.1588C201.894 72.73 208.616 69.643 214.677 70.4158Z" fill="#32338C"/>
<path d="M250.005 83.3722C249.543 83.9956 249.034 84.5848 248.478 85.1218C246.574 86.9608 244.218 88.2778 241.765 89.2744C239.946 90.0136 238.02 90.5926 236.057 90.5542C235.839 90.55 235.62 90.5338 235.401 90.5122C235.497 90.8902 235.636 91.2526 235.867 91.5652C236.592 92.5492 237.942 92.8018 239.163 92.8726C242.443 93.0646 245.766 92.4874 248.791 91.2016C249.12 91.0618 249.465 90.8968 249.651 90.5914C249.84 90.2794 249.823 89.8894 249.803 89.5252C249.688 87.43 249.803 85.3912 250.005 83.3722Z" fill="#F8AB73"/>
<path d="M241.764 89.2744C244.217 88.2784 246.573 86.9608 248.478 85.1218C249.034 84.5848 249.543 83.9956 250.004 83.3722C250.336 80.0428 250.906 76.768 251.081 73.3834C247.669 72.5818 242.159 76.1224 239.781 78.358C236.718 81.2386 234.793 85.471 235.247 89.6518C235.278 89.9404 235.328 90.2302 235.399 90.5122C235.618 90.5338 235.837 90.5494 236.056 90.5542C238.02 90.5926 239.945 90.0136 241.764 89.2744Z" fill="#FE814B"/>
<path d="M264.75 58.279C266.829 55.3564 268.93 52.3942 270.212 49.0444C271.494 45.6952 271.888 41.8606 270.516 38.5474C269.143 35.2342 265.729 32.6506 262.156 32.959C263.277 30.6598 261.913 28.1086 260.038 26.368C258.164 24.6274 255.586 23.8594 253.058 23.4694C245.902 22.366 238.605 23.8672 231.372 23.5492C228.703 23.4322 225.969 23.0416 223.65 21.7174C221.33 20.3932 219.49 17.971 219.492 15.3004C218.556 17.3338 217.508 19.792 217.663 22.0252C217.819 24.2584 219.04 26.5276 221.101 27.3994C219.024 27.9862 216.854 26.704 215.506 25.0174C214.158 23.3308 213.624 21.1252 213.481 18.9706C211.197 20.4112 209.615 22.7986 208.764 25.3606C207.989 27.694 207.583 30.1984 207.991 32.623C208.4 35.0482 209.697 37.387 211.77 38.7082C210.781 38.8756 209.715 38.9806 208.791 38.5906C208.729 39.9586 209.51 41.263 210.571 42.1294C211.632 42.9958 212.946 43.486 214.258 43.8784C218.76 45.226 223.488 45.5908 228.1 46.4884C238.989 48.6076 249.047 53.6488 259.398 57.64C260.847 58.1998 263.242 58.6516 264.75 58.279Z" fill="#FE642F"/>
<path d="M253.392 56.6494C251.833 51.121 252.657 45.1684 254.384 39.6898C248.943 44.8144 240.934 46.0762 233.527 45.0712C235.995 43.8712 238.227 42.1912 240.064 40.1524C232.702 39.6736 225.108 41.4646 217.764 40.78C216.922 43.324 216.379 45.9694 216.081 48.4192C215.437 53.6968 215.851 59.0566 216.726 64.3012C217.681 70.0228 219.273 75.8368 222.894 80.3674C226.516 84.898 232.574 87.8698 238.195 86.437C240.291 85.903 242.203 84.8062 243.969 83.5558C250.47 78.9502 255.192 72.2026 258.362 64.861C256.008 62.6818 254.266 59.7514 253.392 56.6494Z" fill="#F8AB74"/>
<path d="M240.064 40.153C238.227 42.1912 235.994 43.8718 233.526 45.0718C240.932 46.0768 248.942 44.815 254.383 39.6904C252.656 45.169 251.833 51.1216 253.391 56.65C254.265 59.7514 256.007 62.6824 258.361 64.8616C258.773 63.9082 259.162 62.9458 259.521 61.9756C261.069 57.8002 262.189 53.4148 262.228 48.9616C262.267 44.5084 261.167 39.9664 258.596 36.3298C254.975 31.207 248.827 28.3804 242.662 27.2212C239.651 26.6548 236.534 26.4346 233.527 27.0286C229.525 27.82 224.074 30.07 221.479 33.4396C219.862 35.5396 218.647 38.1034 217.762 40.7806C225.108 41.4646 232.702 39.6736 240.064 40.153Z" fill="#FE642F"/>
<path d="M255.299 56.6824C254.439 58.9732 254.437 61.5142 254.875 63.9214C255.213 65.779 255.97 67.789 257.681 68.5888C258.945 69.1798 260.482 68.9464 261.695 68.2558C262.908 67.5658 263.84 66.4726 264.632 65.3242C265.827 63.5908 266.776 61.6354 267.019 59.5438C267.263 57.4522 266.731 55.2094 265.291 53.6728C263.886 52.1728 261.411 51.0802 259.469 51.9778C257.514 52.882 256.047 54.6898 255.299 56.6824Z" fill="#F8AB73"/>
<path d="M264.321 55.9144C263.706 55.1218 262.678 54.8098 261.751 54.9196C260.811 54.9994 259.979 55.555 259.389 56.272C258.784 56.9926 258.392 57.8668 258.152 58.7902C257.898 59.713 257.798 60.6832 257.671 61.6612L257.085 61.4134C257.676 60.7096 258.547 60.1246 259.569 60.19C260.067 60.2212 260.557 60.4618 260.894 60.814C261.237 61.1686 261.439 61.6162 261.538 62.0722C261.63 62.5294 261.624 63.01 261.479 63.4552C261.336 63.898 261.091 64.2904 260.781 64.6144C260.151 65.2528 259.339 65.6548 258.502 65.8378C259.296 65.5234 260.043 65.0656 260.55 64.4128C260.796 64.0876 261 63.7282 261.091 63.3448C261.188 62.9668 261.164 62.5606 261.063 62.1874C260.86 61.4344 260.254 60.82 259.531 60.8032C258.81 60.7792 258.081 61.2304 257.599 61.8304L256.891 62.7112L257.013 61.582C257.119 60.6004 257.256 59.6008 257.53 58.6168C257.808 57.6388 258.27 56.6728 258.985 55.9132C259.69 55.1602 260.676 54.595 261.73 54.5764C262.755 54.562 263.838 55.0216 264.321 55.9144Z" fill="#32338C"/>
<path d="M233.223 50.4358C233.769 53.1694 233.742 56.0254 233.245 58.7872C232.747 61.5502 231.774 64.2364 230.344 66.6436L230.27 66.3922C230.679 66.6382 231.105 66.8656 231.553 67.0462C232.002 67.2268 232.468 67.3696 232.945 67.4836C232.455 67.4578 231.966 67.3732 231.487 67.243C231.01 67.1128 230.536 66.946 230.089 66.7192L229.933 66.64L230.015 66.4678C231.199 63.976 232.072 61.3582 232.605 58.666C233.137 55.9732 233.325 53.2168 233.223 50.4358Z" fill="#32338C"/>
<path d="M231.346 75.1588C231.986 75.5692 232.659 75.8554 233.349 75.9202C235.227 76.0972 236.999 74.3806 238.24 72.7474C235.746 72.5764 233.192 73.471 231.346 75.1588Z" fill="#FE632E"/>
<path d="M232.647 72.0382C230.252 71.7904 226.701 69.643 226.701 69.643C226.701 69.643 228.729 73.4788 231.346 75.1588C233.191 73.4716 235.746 72.577 238.24 72.7474C239.318 71.329 239.997 69.9736 239.997 69.9736C239.997 69.9736 235.042 72.286 232.647 72.0382Z" fill="#32338C"/>
<path d="M226.286 56.0272C226.349 57.304 225.736 58.372 224.915 58.4128C224.095 58.4536 223.379 57.451 223.316 56.1742C223.253 54.8974 223.867 53.8294 224.687 53.7886C225.506 53.7478 226.223 54.7498 226.286 56.0272Z" fill="#32328C"/>
<path d="M242.971 56.341C243.034 57.6178 242.42 58.6858 241.6 58.7266C240.78 58.7674 240.064 57.7648 240.001 56.488C239.938 55.2112 240.551 54.1432 241.372 54.1024C242.191 54.0616 242.908 55.0642 242.971 56.341Z" fill="#32328C"/>
<path d="M219.933 51.0688C220.146 50.2924 220.508 49.5502 220.98 48.853C221.222 48.5104 221.493 48.1792 221.793 47.8666C222.102 47.5648 222.439 47.2822 222.804 47.0266C223.171 46.7728 223.546 46.5028 223.958 46.2784C224.37 46.0588 224.834 45.949 225.304 45.97C226.233 46.0204 227.214 46.3888 227.783 47.32L227.712 47.5786C226.806 48.103 226.229 48.3874 225.642 48.631C225.354 48.7486 225.068 48.8044 224.751 48.8128C224.433 48.817 224.097 48.838 223.785 48.934C223.47 49.0282 223.157 49.1518 222.849 49.303C222.534 49.4434 222.223 49.6126 221.921 49.807C221.305 50.185 220.728 50.6656 220.162 51.205L219.933 51.0688Z" fill="#FE642E"/>
<path d="M245.743 51.205C245.177 50.665 244.6 50.1844 243.984 49.807C243.682 49.6126 243.372 49.4434 243.056 49.303C242.749 49.1518 242.435 49.0282 242.12 48.934C241.808 48.838 241.473 48.817 241.155 48.8128C240.837 48.8044 240.551 48.7486 240.262 48.631C239.676 48.3874 239.099 48.103 238.193 47.5786L238.122 47.32C238.691 46.3888 239.671 46.0204 240.601 45.97C241.071 45.949 241.535 46.0588 241.947 46.2784C242.358 46.5022 242.733 46.7728 243.101 47.0266C243.466 47.2822 243.803 47.5648 244.111 47.8666C244.412 48.1792 244.683 48.5104 244.925 48.853C245.397 49.5502 245.759 50.2924 245.972 51.0688L245.743 51.205Z" fill="#FE642E"/>
<path opacity="0.4" d="M225.453 66.7996C225.453 67.8196 224.071 68.647 222.367 68.647C220.663 68.647 219.282 67.8202 219.282 66.7996C219.282 65.7796 220.663 64.9522 222.367 64.9522C224.071 64.9528 225.453 65.7796 225.453 66.7996Z" fill="#F8AB74"/>
<path opacity="0.4" d="M246.848 66.7996C246.848 67.8196 245.467 68.647 243.763 68.647C242.059 68.647 240.678 67.8202 240.678 66.7996C240.678 65.7796 242.059 64.9522 243.763 64.9522C245.467 64.9528 246.848 65.7796 246.848 66.7996Z" fill="#F8AB74"/>
<path d="M219.591 15.4C219.158 17.5042 219.483 19.7086 220.398 21.607C221.289 23.5132 222.759 25.1572 224.598 26.1406C226.45 27.1078 228.584 27.4102 230.693 27.448C232.815 27.4792 234.946 27.3352 237.073 27.1414C241.327 26.8054 245.616 26.2282 249.94 26.563C252.084 26.7562 254.287 27.2692 256.088 28.54C256.968 29.1862 257.73 29.9932 258.275 30.934C258.82 31.8706 259.129 32.9506 259.087 34.0246C259.056 32.95 258.69 31.9156 258.123 31.0264C257.55 30.136 256.774 29.3908 255.901 28.8106C254.138 27.6466 252.002 27.205 249.901 27.0772C245.656 26.8534 241.4 27.4168 237.131 27.8086C234.991 27.9826 232.841 28.1086 230.679 28.0564C228.531 27.988 226.287 27.6934 224.352 26.59C222.434 25.4914 220.957 23.734 220.1 21.7408C219.259 19.744 219.009 17.4742 219.591 15.4Z" fill="#F8AB74"/>
<path d="M256.648 37.702C256.284 35.2384 254.406 33.2404 252.199 32.3182C249.965 31.3588 247.441 31.3318 245.064 31.7434C242.668 32.1634 240.344 32.9524 237.972 33.6352C235.602 34.315 233.194 34.9078 230.736 35.2528C228.28 35.59 225.768 35.6584 223.297 35.3176C220.849 34.9642 218.347 34.2706 216.328 32.7196C214.329 31.1884 212.869 28.981 212.284 26.5486C211.727 24.1162 212.005 21.5068 213.106 19.3012C212.146 21.565 211.957 24.13 212.602 26.4676C213.232 28.8064 214.693 30.8962 216.636 32.3056C218.59 33.7102 220.983 34.3984 223.378 34.7128C225.784 35.0248 228.235 34.9372 230.644 34.5892C233.061 34.2706 235.446 33.7048 237.807 33.049C240.165 32.4022 242.513 31.5874 244.984 31.2358C247.432 30.8758 250.042 30.9604 252.333 32.0194C253.468 32.5522 254.478 33.3412 255.25 34.3168C256.024 35.2882 256.548 36.4714 256.648 37.702Z" fill="#F8AB74"/>
<path d="M254.137 36.5458C253.349 35.2498 251.973 34.4902 250.574 34.2496C249.156 34.0204 247.689 34.2832 246.359 34.8406C245.02 35.3848 243.825 36.262 242.705 37.2238C241.588 38.1946 240.531 39.262 239.415 40.27C240.339 39.0862 241.264 37.9018 242.35 36.8392C243.424 35.7754 244.665 34.8196 246.103 34.2208C246.822 33.9322 247.575 33.7192 248.349 33.622C249.123 33.5392 249.916 33.556 250.679 33.7384C251.44 33.9172 252.165 34.2556 252.774 34.7344C253.368 35.224 253.873 35.8372 254.137 36.5458Z" fill="#F8AB74"/>
<path d="M262.559 36.4186C263.41 36.1192 264.381 36.1966 265.242 36.5188C266.109 36.8506 266.861 37.4596 267.438 38.1862C268.595 39.6652 269.065 41.5498 269.123 43.3738C269.161 45.2128 268.776 47.0404 268.079 48.7132C267.729 49.5496 267.324 50.3584 266.869 51.1348C266.398 51.9022 265.903 52.651 265.351 53.3572C265.776 52.5682 266.212 51.79 266.58 50.98C266.97 50.1826 267.314 49.366 267.596 48.5314C268.16 46.8664 268.503 45.1282 268.453 43.3906C268.413 41.665 267.99 39.9136 267.026 38.4916C266.541 37.7866 265.894 37.1884 265.112 36.8176C264.343 36.421 263.443 36.2686 262.559 36.4186Z" fill="#F8AB74"/>
<path d="M257.855 39.2704C258.481 39.1336 259.158 39.2872 259.742 39.5854C260.328 39.8932 260.823 40.3726 261.195 40.9156C261.944 42.016 262.318 43.2712 262.581 44.5318C262.819 45.8014 262.866 47.107 262.698 48.3826C262.617 49.0204 262.486 49.6504 262.3 50.2624C262.2 50.5666 262.097 50.8684 261.976 51.1636C261.918 51.307 261.867 51.4696 261.76 51.6028C261.666 51.7288 261.482 51.8578 261.33 51.7666C261.495 51.8176 261.613 51.6742 261.675 51.5476C261.748 51.418 261.771 51.2674 261.806 51.1114C261.877 50.806 261.93 50.4964 261.979 50.1886C262.086 49.5742 262.143 48.9544 262.176 48.337C262.233 47.1016 262.161 45.8644 261.922 44.6584C261.687 43.4584 261.348 42.2434 260.756 41.1988C260.452 40.681 260.067 40.2118 259.571 39.8656C259.086 39.502 258.489 39.2866 257.855 39.2704Z" fill="#F8AB74"/>
<path d="M116.73 57.5802L41.5034 67.2889L52.0564 149.058L127.283 139.349L116.73 57.5802Z" fill="#EEEEFF"/>
<path d="M114.43 39.7615L39.2032 49.4702L41.5029 67.2893L116.73 57.5806L114.43 39.7615Z" fill="#7371FC"/>
<path d="M41.5028 67.2889L31.2596 68.6108L41.8126 150.38L52.0557 149.058L41.5028 67.2889Z" fill="#91C4FB"/>
<path d="M39.2042 49.4695L28.9611 50.7914L31.2608 68.6105L41.5039 67.2886L39.2042 49.4695Z" fill="#443DC3"/>
<path d="M58.8142 70.9081L47.3179 72.3918L49.3324 88.0013L60.8288 86.5176L58.8142 70.9081Z" fill="#FEFFFD"/>
<path d="M72.4583 69.1474L60.9619 70.6311L62.9765 86.2406L74.4728 84.7569L72.4583 69.1474Z" fill="#FEFFFD"/>
<path d="M86.1027 67.3871L74.6063 68.8708L76.6209 84.4803L88.1172 82.9966L86.1027 67.3871Z" fill="#FEFFFD"/>
<path d="M99.7473 65.6256L88.251 67.1093L90.2655 82.7188L101.762 81.2351L99.7473 65.6256Z" fill="#FEFFFD"/>
<path d="M113.392 63.8638L101.896 65.3475L103.91 80.957L115.407 79.4733L113.392 63.8638Z" fill="#FEFFFD"/>
<path d="M61.0916 88.5565L49.5952 90.0402L51.6098 105.65L63.1061 104.166L61.0916 88.5565Z" fill="#FEFFFD"/>
<path d="M74.7367 86.7947L63.2404 88.2784L65.2549 103.888L76.7512 102.404L74.7367 86.7947Z" fill="#FEFFFD"/>
<path d="M88.3808 85.0346L76.8844 86.5182L78.8989 102.128L90.3953 100.644L88.3808 85.0346Z" fill="#FEFFFD"/>
<path d="M102.025 83.2731L90.5291 84.7568L92.5436 100.366L104.04 98.8826L102.025 83.2731Z" fill="#FEFFFD"/>
<path d="M115.669 81.5128L104.173 82.9965L106.187 98.6061L117.684 97.1224L115.669 81.5128Z" fill="#FEFFFD"/>
<path d="M63.3693 106.204L51.8729 107.688L53.8875 123.298L65.3838 121.814L63.3693 106.204Z" fill="#FEFFFD"/>
<path d="M77.0134 104.444L65.5171 105.927L67.5316 121.537L79.028 120.053L77.0134 104.444Z" fill="#FEFFFD"/>
<path d="M90.6594 102.682L79.1631 104.165L81.1776 119.775L92.674 118.291L90.6594 102.682Z" fill="#FEFFFD"/>
<path d="M104.303 100.922L92.8062 102.406L94.8207 118.015L106.317 116.532L104.303 100.922Z" fill="#FEFFFD"/>
<path d="M117.947 99.1609L106.451 100.645L108.465 116.254L119.961 114.77L117.947 99.1609Z" fill="#FEFFFD"/>
<path d="M65.647 123.853L54.1506 125.336L56.1652 140.946L67.6615 139.462L65.647 123.853Z" fill="#FEFFFD"/>
<path d="M79.2919 122.091L67.7955 123.575L69.8101 139.185L81.3064 137.701L79.2919 122.091Z" fill="#FEFFFD"/>
<path d="M92.936 120.331L81.4397 121.815L83.4542 137.424L94.9506 135.94L92.936 120.331Z" fill="#FEFFFD"/>
<path d="M106.581 118.569L95.0851 120.052L97.0996 135.662L108.596 134.178L106.581 118.569Z" fill="#FEFFFD"/>
<path d="M120.225 116.809L108.728 118.293L110.743 133.902L122.239 132.419L120.225 116.809Z" fill="#FEFFFD"/>
<path d="M35.0046 50.0122L34.3512 44.95C33.9414 41.7754 36.183 38.8696 39.3576 38.4604L42.8772 38.0062C46.0518 37.5964 48.9576 39.838 49.3668 43.0126L50.4924 51.7372C50.9022 54.9118 48.6606 57.8176 45.486 58.2268" stroke="#32338C" stroke-width="4.0278" stroke-miterlimit="10" stroke-linecap="round" stroke-linejoin="round"/>
<path d="M45.0419 48.7168L44.3885 43.6546C43.9787 40.48 46.2203 37.5742 49.3949 37.165L52.9145 36.7108C56.0891 36.301 58.9949 38.5426 59.4041 41.7172L60.5297 50.4418C60.9395 53.6164 58.6979 56.5216 55.5233 56.9314" stroke="#32338C" stroke-width="4.0278" stroke-miterlimit="10" stroke-linecap="round" stroke-linejoin="round"/>
<path d="M55.0794 47.422L54.426 42.3598C54.0162 39.1852 56.2578 36.2794 59.4324 35.8702L62.952 35.416C66.1266 35.0062 69.0324 37.2478 69.4416 40.4224L70.5672 49.147C70.977 52.3216 68.7354 55.2274 65.5608 55.6366" stroke="#32338C" stroke-width="4.0278" stroke-miterlimit="10" stroke-linecap="round" stroke-linejoin="round"/>
<path d="M65.1162 46.1266L64.4628 41.0644C64.053 37.8898 66.2946 34.9846 69.4692 34.5748L72.9888 34.1206C76.1634 33.7108 79.0686 35.9524 79.4784 39.127L80.604 47.8516C81.0138 51.0262 78.7722 53.932 75.5976 54.3412" stroke="#32338C" stroke-width="4.0278" stroke-miterlimit="10" stroke-linecap="round" stroke-linejoin="round"/>
<path d="M75.1536 44.8318L74.5002 39.7696C74.0904 36.595 76.332 33.6892 79.5066 33.28L83.0262 32.8258C86.2008 32.416 89.106 34.6576 89.5158 37.8322L90.6414 46.5568C91.0512 49.7314 88.8096 52.6366 85.635 53.0464" stroke="#32338C" stroke-width="4.0278" stroke-miterlimit="10" stroke-linecap="round" stroke-linejoin="round"/>
<path d="M85.191 43.5364L84.5376 38.4742C84.1278 35.2996 86.3694 32.3938 89.544 31.9846L93.0636 31.5304C96.2382 31.1206 99.1434 33.3622 99.5532 36.5368L100.679 45.2614C101.089 48.436 98.847 51.3418 95.6724 51.751" stroke="#32338C" stroke-width="4.0278" stroke-miterlimit="10" stroke-linecap="round" stroke-linejoin="round"/>
<path d="M95.2283 42.2416L94.5749 37.1794C94.1651 34.0048 96.4067 31.0996 99.5813 30.6898L103.101 30.2356C106.276 29.8258 109.181 32.0674 109.591 35.242L110.716 43.9666C111.126 47.1412 108.884 50.047 105.71 50.4562" stroke="#32338C" stroke-width="4.0278" stroke-miterlimit="10" stroke-linecap="round" stroke-linejoin="round"/>
<path d="M148.961 246.466C199.741 246.466 240.905 205.301 240.905 154.522C240.905 103.743 199.741 62.578 148.961 62.578C98.1822 62.578 57.0175 103.743 57.0175 154.522C57.0175 205.301 98.1822 246.466 148.961 246.466Z" fill="#32338C"/>
<path d="M153.287 246.466C204.066 246.466 245.231 205.301 245.231 154.522C245.231 103.743 204.066 62.578 153.287 62.578C102.508 62.578 61.3429 103.743 61.3429 154.522C61.3429 205.301 102.508 246.466 153.287 246.466Z" fill="#7371FC"/>
<path d="M167.624 199.919C184.216 193.225 199.275 182.09 209.044 167.101C220.39 149.692 223.815 128.58 222.821 107.579C207.742 85.2874 182.225 70.633 153.286 70.633C106.956 70.633 69.3972 108.191 69.3972 154.522C69.3972 169.879 73.527 184.27 80.7318 196.651C107.657 209.381 139.928 211.092 167.624 199.919Z" fill="white"/>
<path d="M222.821 107.58C223.814 128.58 220.389 149.693 209.044 167.102C199.275 182.091 184.216 193.226 167.624 199.919C139.928 211.092 107.657 209.381 80.733 196.652C95.2644 221.624 122.314 238.412 153.287 238.412C199.618 238.412 237.176 200.853 237.176 154.523C237.176 137.131 231.883 120.976 222.821 107.58Z" fill="#EEEEFF"/>
<path d="M152.371 155.607L112.904 120.424L154.202 153.438L152.371 155.607Z" fill="#32338C"/>
<path d="M154.859 153.528L173.072 220.391L151.715 155.517L154.859 153.528Z" fill="#32338C"/>
<path d="M153.287 160.737C156.719 160.737 159.502 157.955 159.502 154.522C159.502 151.089 156.719 148.307 153.287 148.307C149.854 148.307 147.071 151.089 147.071 154.522C147.071 157.955 149.854 160.737 153.287 160.737Z" fill="#FE814B"/>
<path d="M153.287 70.6336V88.4662" stroke="#32338C" stroke-width="3.8829" stroke-miterlimit="10" stroke-linecap="round" stroke-linejoin="round"/>
<path d="M153.287 220.578V238.411" stroke="#32338C" stroke-width="3.8829" stroke-miterlimit="10" stroke-linecap="round" stroke-linejoin="round"/>
<path d="M237.175 154.522H219.343" stroke="#32338C" stroke-width="3.8829" stroke-miterlimit="10" stroke-linecap="round" stroke-linejoin="round"/>
<path d="M87.231 154.522H69.3978" stroke="#32338C" stroke-width="3.8829" stroke-miterlimit="10" stroke-linecap="round" stroke-linejoin="round"/>
<path d="M82.4779 109.539L97.5307 119.102" stroke="#32338C" stroke-width="3.8829" stroke-miterlimit="10" stroke-linecap="round" stroke-linejoin="round"/>
<path d="M209.043 189.943L224.095 199.505" stroke="#32338C" stroke-width="3.8829" stroke-miterlimit="10" stroke-linecap="round" stroke-linejoin="round"/>
<path d="M198.269 83.7136L188.707 98.7658" stroke="#32338C" stroke-width="3.8829" stroke-miterlimit="10" stroke-linecap="round" stroke-linejoin="round"/>
<path d="M117.867 210.279L108.304 225.331" stroke="#32338C" stroke-width="3.8829" stroke-miterlimit="10" stroke-linecap="round" stroke-linejoin="round"/>
<path d="M224.095 109.539L209.043 119.102" stroke="#32338C" stroke-width="3.8829" stroke-miterlimit="10" stroke-linecap="round" stroke-linejoin="round"/>
<path d="M97.5307 189.943L82.4779 199.505" stroke="#32338C" stroke-width="3.8829" stroke-miterlimit="10" stroke-linecap="round" stroke-linejoin="round"/>
<path d="M108.304 83.7136L117.867 98.7658" stroke="#32338C" stroke-width="3.8829" stroke-miterlimit="10" stroke-linecap="round" stroke-linejoin="round"/>
<path d="M188.707 210.279L198.269 225.331" stroke="#32338C" stroke-width="3.8829" stroke-miterlimit="10" stroke-linecap="round" stroke-linejoin="round"/>
<path d="M106.932 200.802L25.9702 231.486L42.8349 275.984L123.797 245.3L106.932 200.802Z" fill="#F8AB74"/>
<path d="M74.8759 238.397L25.9626 231.489L76.8679 243.654L106.926 200.807L74.8759 238.397Z" fill="#FE814B"/>
<path d="M270.821 190.9L195.34 173.086L172.362 270.451L247.843 288.265L270.821 190.9Z" fill="#32338C"/>
<path d="M272.222 191.231L196.74 173.417L173.762 270.782L249.243 288.596L272.222 191.231Z" fill="#91C4FB"/>
<path d="M263.821 199.184L200.7 184.287L181.283 266.564L244.403 281.46L263.821 199.184Z" fill="white"/>
<path d="M248.203 174.653L225.605 169.319C221.976 168.462 218.34 170.71 217.483 174.339L216.594 178.106L252.332 186.542L253.222 182.775C254.079 179.146 251.831 175.51 248.203 174.653Z" fill="#32338C"/>
<path d="M215.681 200.616C214.889 203.967 211.532 206.043 208.181 205.252C204.83 204.461 202.754 201.103 203.545 197.751C204.337 194.4 207.694 192.325 211.045 193.116C214.397 193.907 216.472 197.265 215.681 200.616Z" fill="#EEEEFE"/>
<path d="M206.702 196.542L209.307 200.758L216.802 196.126" stroke="#FE814B" stroke-width="3.1984" stroke-miterlimit="10" stroke-linecap="round" stroke-linejoin="round"/>
<path d="M221.762 198.047L256.115 206.156" stroke="#91C4FB" stroke-width="3.1984" stroke-miterlimit="10" stroke-linecap="round" stroke-linejoin="round"/>
<path d="M220.867 201.84L255.219 209.949" stroke="#91C4FB" stroke-width="3.1984" stroke-miterlimit="10" stroke-linecap="round" stroke-linejoin="round"/>
<path d="M219.971 205.634L254.324 213.743" stroke="#91C4FB" stroke-width="3.1984" stroke-miterlimit="10" stroke-linecap="round" stroke-linejoin="round"/>
<path d="M211.121 219.936C210.33 223.287 206.972 225.362 203.621 224.571C200.27 223.781 198.194 220.422 198.985 217.071C199.776 213.72 203.134 211.645 206.485 212.436C209.836 213.227 211.912 216.584 211.121 219.936Z" fill="#EEEEFE"/>
<path d="M202.142 215.862L204.747 220.077L212.241 215.445" stroke="#FE814B" stroke-width="3.1984" stroke-miterlimit="10" stroke-linecap="round" stroke-linejoin="round"/>
<path d="M217.202 217.366L251.554 225.475" stroke="#91C4FB" stroke-width="3.1984" stroke-miterlimit="10" stroke-linecap="round" stroke-linejoin="round"/>
<path d="M216.306 221.16L250.659 229.269" stroke="#91C4FB" stroke-width="3.1984" stroke-miterlimit="10" stroke-linecap="round" stroke-linejoin="round"/>
<path d="M215.411 224.954L249.763 233.063" stroke="#91C4FB" stroke-width="3.1984" stroke-miterlimit="10" stroke-linecap="round" stroke-linejoin="round"/>
<path d="M206.56 239.255C205.769 242.606 202.411 244.681 199.06 243.89C195.709 243.099 193.633 239.741 194.424 236.39C195.215 233.039 198.573 230.964 201.924 231.755C205.276 232.545 207.351 235.904 206.56 239.255Z" fill="#EEEEFE"/>
<path d="M197.581 235.181L200.187 239.396L207.68 234.765" stroke="#FE814B" stroke-width="3.1984" stroke-miterlimit="10" stroke-linecap="round" stroke-linejoin="round"/>
<path d="M212.641 236.685L246.994 244.794" stroke="#91C4FB" stroke-width="3.1984" stroke-miterlimit="10" stroke-linecap="round" stroke-linejoin="round"/>
<path d="M211.746 240.479L246.098 248.588" stroke="#91C4FB" stroke-width="3.1984" stroke-miterlimit="10" stroke-linecap="round" stroke-linejoin="round"/>
<path d="M210.85 244.272L245.203 252.382" stroke="#91C4FB" stroke-width="3.1984" stroke-miterlimit="10" stroke-linecap="round" stroke-linejoin="round"/>
<path d="M256.395 193.494L209.853 182.507C208.385 182.161 207.476 180.69 207.823 179.223L208.536 176.203L260.393 188.444L259.68 191.464C259.333 192.932 257.863 193.841 256.395 193.494Z" fill="#91C4FB"/>
<path d="M202.141 258.608C201.349 261.959 197.992 264.034 194.64 263.243C191.289 262.452 189.214 259.094 190.005 255.743C190.795 252.392 194.154 250.316 197.505 251.107C200.857 251.898 202.932 255.256 202.141 258.608Z" fill="#EEEEFE"/>
<path d="M193.162 254.534L195.768 258.749L203.262 254.117" stroke="#FE814B" stroke-width="3.1984" stroke-miterlimit="10" stroke-linecap="round" stroke-linejoin="round"/>
<path d="M208.222 256.038L242.575 264.147" stroke="#91C4FB" stroke-width="3.1984" stroke-miterlimit="10" stroke-linecap="round" stroke-linejoin="round"/>
<path d="M207.327 259.832L241.68 267.941" stroke="#91C4FB" stroke-width="3.1984" stroke-miterlimit="10" stroke-linecap="round" stroke-linejoin="round"/>
<path d="M206.431 263.625L240.784 271.734" stroke="#91C4FB" stroke-width="3.1984" stroke-miterlimit="10" stroke-linecap="round" stroke-linejoin="round"/>
<path d="M250.004 102.554C249.181 104.535 248.182 106.417 247.139 108.273C246.079 110.12 244.975 111.942 243.692 113.663C244.513 111.68 245.513 109.799 246.557 107.943C247.618 106.097 248.723 104.275 250.004 102.554Z" fill="white"/>
<path d="M258.844 130.055C258.844 130.055 252.789 139.557 246.796 146.634C240.802 153.712 232.351 161.649 232.351 161.649L187.15 142.714L193.785 127.232L226.879 137.457L245.946 110.471L258.844 130.055Z" fill="#32338C"/>
<path d="M186.658 124.236L193.786 127.232L189.112 138.137L184.479 136.558L174.253 136.977L171.25 135.476C170.147 134.924 169.728 133.562 170.332 132.486L171.151 131.026L170.425 130.46C169.391 129.652 169.31 128.116 170.253 127.203L171.067 126.416L169.964 124.922C169.177 123.856 169.525 122.34 170.698 121.725L171.821 121.135L171.458 119.151C171.251 118.025 171.959 116.933 173.071 116.661C174.512 116.31 176.036 116.606 177.241 117.471L186.658 124.236Z" fill="#F8AB72"/>
<path d="M186.784 124.967C184.615 120.324 182.411 115.553 182.018 110.444C181.999 110.194 181.966 109.91 181.761 109.766C181.642 109.682 181.49 109.665 181.345 109.664C180.145 109.653 179.048 110.544 178.619 111.663C178.19 112.783 178.357 114.07 178.867 115.155C178.979 115.394 179.111 115.64 179.099 115.904C179.09 116.132 178.974 116.339 178.861 116.538C178.484 117.201 178.106 117.865 177.729 118.529C180.091 121.401 183.271 123.744 186.784 124.967Z" fill="#F8AB72"/>
<path d="M182.645 121.877C182.215 121.609 181.808 121.313 181.405 121.013C181 120.716 180.611 120.398 180.223 120.08C179.839 119.756 179.456 119.432 179.09 119.088C178.721 118.746 178.356 118.401 178.015 118.026C178.445 118.293 178.852 118.59 179.255 118.89C179.66 119.187 180.049 119.505 180.437 119.823C180.821 120.147 181.204 120.471 181.57 120.815C181.938 121.157 182.303 121.503 182.645 121.877Z" fill="#32338C"/>
<path d="M180.296 60.8908L191.235 65.1136C192.655 65.6614 193.534 67.09 193.384 68.6044L192.831 74.1706L189.046 80.3758C189.046 80.3758 187.494 79.9414 188.053 78.2038C188.611 76.4662 190.473 71.812 190.473 71.812V68.5234C190.473 68.5234 188.68 76.1128 186.967 77.521C185.255 78.9292 179.061 76.1782 177.386 74.8132C176.569 74.1472 178.021 71.9992 178.219 68.7964C178.426 65.4316 177.466 61.0186 180.296 60.8908Z" fill="#F8AB74"/>
<path d="M187.293 63.4348C187.478 64.6924 187.511 65.9734 187.423 67.2466C187.336 68.5204 187.105 69.7834 186.783 71.0194C186.434 72.2488 185.992 73.4536 185.421 74.596C184.85 75.7378 184.174 76.8256 183.375 77.815C184.06 76.7452 184.672 75.637 185.188 74.4856C185.703 73.3348 186.141 72.1498 186.46 70.9318C186.804 69.7204 187.026 68.4766 187.166 67.2238C187.307 65.9698 187.341 64.7038 187.293 63.4348Z" fill="#32338C"/>
<path d="M183.13 61.9912C183.247 63.229 183.24 64.4788 183.142 65.7214C183.044 66.9652 182.831 68.1982 182.551 69.4144C182.243 70.624 181.869 71.8186 181.385 72.9682C181.137 73.5406 180.878 74.107 180.593 74.6608C180.441 74.9338 180.305 75.211 180.139 75.4786C179.975 75.7414 179.754 76.0036 179.449 76.0942C179.74 75.9682 179.92 75.7006 180.061 75.4342C180.202 75.1618 180.316 74.8708 180.445 74.59C180.698 74.0254 180.928 73.4518 181.145 72.8734C181.574 71.716 181.946 70.5376 182.225 69.3358C182.529 68.14 182.735 66.922 182.886 65.6968C183.037 64.4704 183.109 63.2338 183.13 61.9912Z" fill="#32338C"/>
</g>
<defs>
<filter id="filter0_d_44_1571" x="10.9626" y="0.300385" width="296.259" height="323.296" filterUnits="userSpaceOnUse" color-interpolation-filters="sRGB">
<feFlood flood-opacity="0" result="BackgroundImageFix"/>
<feColorMatrix in="SourceAlpha" type="matrix" values="0 0 0 0 0 0 0 0 0 0 0 0 0 0 0 0 0 0 127 0" result="hardAlpha"/>
<feOffset dx="10" dy="10"/>
<feGaussianBlur stdDeviation="12.5"/>
<feComposite in2="hardAlpha" operator="out"/>
<feColorMatrix type="matrix" values="0 0 0 0 0 0 0 0 0 0 0 0 0 0 0 0 0 0 0.3 0"/>
<feBlend mode="normal" in2="BackgroundImageFix" result="effect1_dropShadow_44_1571"/>
<feBlend mode="normal" in="SourceGraphic" in2="effect1_dropShadow_44_1571" result="shape"/>
</filter>
</defs>
</svg>
