<svg width="30" height="31" viewBox="0 0 30 31" fill="none" xmlns="http://www.w3.org/2000/svg">
<path d="M5 25.3427C4.3125 25.3427 3.72417 25.0981 3.235 24.609C2.74583 24.1198 2.50083 23.531 2.5 22.8427V7.84271C2.5 7.15521 2.745 6.56688 3.235 6.07771C3.725 5.58855 4.31333 5.34355 5 5.34271H11.4688C11.8021 5.34271 12.12 5.40521 12.4225 5.53021C12.725 5.65521 12.9904 5.8323 13.2188 6.06146L15 7.84271H25C25.6875 7.84271 26.2763 8.08771 26.7663 8.57771C27.2563 9.06771 27.5008 9.65604 27.5 10.3427V22.8427C27.5 23.5302 27.2554 24.119 26.7663 24.609C26.2771 25.099 25.6883 25.3435 25 25.3427H5Z" fill="white"/>
</svg>
