<svg width="30" height="31" viewBox="0 0 30 31" fill="none" xmlns="http://www.w3.org/2000/svg">
<path d="M5 24.0927V12.8427C5 12.4469 5.08875 12.0719 5.26625 11.7177C5.44375 11.3635 5.68833 11.0719 6 10.8427L13.5 5.21771C13.9375 4.88438 14.4375 4.71771 15 4.71771C15.5625 4.71771 16.0625 4.88438 16.5 5.21771L24 10.8427C24.3125 11.0719 24.5575 11.3635 24.735 11.7177C24.9125 12.0719 25.0008 12.4469 25 12.8427V24.0927C25 24.7802 24.755 25.369 24.265 25.859C23.775 26.349 23.1867 26.5935 22.5 26.5927H18.75C18.3958 26.5927 18.0992 26.4727 17.86 26.2327C17.6208 25.9927 17.5008 25.696 17.5 25.3427V19.0927C17.5 18.7385 17.38 18.4419 17.14 18.2027C16.9 17.9635 16.6033 17.8435 16.25 17.8427H13.75C13.3958 17.8427 13.0992 17.9627 12.86 18.2027C12.6208 18.4427 12.5008 18.7394 12.5 19.0927V25.3427C12.5 25.6969 12.38 25.994 12.14 26.234C11.9 26.474 11.6033 26.5935 11.25 26.5927H7.5C6.8125 26.5927 6.22417 26.3481 5.735 25.859C5.24583 25.3698 5.00083 24.781 5 24.0927Z" fill="white"/>
</svg>
