<svg width="350" height="350" viewBox="0 0 350 350" fill="none" xmlns="http://www.w3.org/2000/svg">
<g filter="url(#filter0_d_45_5679)">
<path d="M300.936 218.127C270.702 288.835 190.894 319.206 128.363 314.027C111.289 312.613 76.9372 309.769 50.1146 284.389C-1.39633 235.65 6.53686 133.771 55.8476 73.7903C62.1978 66.0661 106.153 14.3141 174.649 15.0069C224.798 15.5141 259.997 43.8583 264.277 47.3895C269.684 51.8503 281.609 62.4505 292.357 79.2672C317.61 118.78 319.83 173.941 300.936 218.127Z" fill="url(#paint0_linear_45_5679)"/>
<path d="M50.8188 173.942C50.8188 243.416 109.235 299.735 181.296 299.735C253.356 299.735 315 240.955 315 171.482C315 102.008 253.356 48.15 181.296 48.15C109.235 48.15 50.8188 104.469 50.8188 173.942Z" fill="url(#paint1_linear_45_5679)"/>
<path d="M304.756 143.356C304.833 143.356 304.911 143.347 304.988 143.327C305.469 143.203 305.755 142.728 305.628 142.264C304.223 137.181 302.43 132.138 300.296 127.278C300.102 126.837 299.571 126.635 299.116 126.816C298.657 127.005 298.443 127.513 298.637 127.956C300.738 132.741 302.504 137.705 303.885 142.711C303.993 143.1 304.358 143.356 304.756 143.356Z" fill="#91B3FA"/>
<path d="M284.817 104.045C285.005 104.045 285.196 103.987 285.359 103.871C285.756 103.582 285.835 103.036 285.536 102.654C261.362 71.7479 222.422 53.298 181.373 53.298C163.842 53.298 146.885 56.7252 130.975 63.4807C130.521 63.6742 130.314 64.1883 130.514 64.626C130.714 65.0652 131.247 65.2639 131.702 65.0722C147.381 58.4116 164.094 55.0353 181.373 55.0353C221.86 55.0353 260.261 73.2274 284.096 103.699C284.274 103.927 284.543 104.045 284.817 104.045Z" fill="#91B3FA"/>
<path d="M68.5708 173.942C68.5708 234.079 119.137 282.83 181.513 282.83C243.889 282.83 297.249 231.949 297.249 171.812C297.249 111.676 243.889 65.0552 181.513 65.0552C119.137 65.0552 68.5708 113.806 68.5708 173.942Z" fill="#7D97F4"/>
<path d="M68.571 173.942C68.571 113.806 119.137 65.0552 181.513 65.0552C215.289 65.0552 246.417 78.7304 267.865 100.814L180.863 170.606L162.977 281.362C109.421 272.836 68.571 227.992 68.571 173.942Z" fill="#7D97F4"/>
<path d="M83.9436 166.373C83.9436 220.645 130.527 264.641 187.989 264.641C245.452 264.641 294.608 218.723 294.608 164.45C294.608 110.178 245.452 68.1041 187.989 68.1041C130.527 68.1041 83.9436 112.1 83.9436 166.373Z" fill="#91B3FA"/>
<path opacity="0.78" d="M268.385 168.295C268.665 172.917 272.777 176.446 277.572 176.177C282.366 175.908 286.026 171.943 285.747 167.321C285.468 162.699 281.355 159.17 276.561 159.439C271.767 159.708 268.106 163.673 268.385 168.295Z" fill="white"/>
<path opacity="0.78" d="M80.5282 178.836C80.807 183.458 84.92 186.987 89.7139 186.718C94.5082 186.449 98.1686 182.484 97.8895 177.862C97.6105 173.24 93.4976 169.711 88.7036 169.98C83.9093 170.249 80.2489 174.214 80.5282 178.836Z" fill="white"/>
<path opacity="0.78" d="M198.481 254.065C193.756 254.897 190.626 259.264 191.489 263.818C192.352 268.373 196.881 271.391 201.605 270.559C206.33 269.727 209.46 265.36 208.597 260.806C207.734 256.251 203.205 253.234 198.481 254.065Z" fill="white"/>
<path opacity="0.78" d="M164.67 75.5984C159.945 76.4304 156.815 80.7968 157.678 85.3515C158.541 89.9061 163.07 92.9238 167.794 92.0918C172.518 91.26 175.648 86.8934 174.786 82.3388C173.923 77.7843 169.394 74.7666 164.67 75.5984Z" fill="white"/>
<path opacity="0.78" d="M136.662 258.857C135.778 261.006 135.999 263.019 137.155 263.352C138.311 263.685 139.965 262.213 140.848 260.064C141.732 257.915 141.511 255.902 140.355 255.568C139.199 255.235 137.545 256.708 136.662 258.857Z" fill="white"/>
<path opacity="0.78" d="M212.237 89.5811C211.353 91.7305 211.574 93.743 212.73 94.0761C213.886 94.4097 215.54 92.9372 216.423 90.7881C217.307 88.6386 217.086 86.6259 215.93 86.2925C214.774 85.9596 213.12 87.4319 212.237 89.5811Z" fill="white"/>
<path opacity="0.78" d="M97.2017 226.678C95.289 228.073 94.3937 229.903 95.2022 230.767C96.0108 231.63 98.2166 231.2 100.13 229.805C102.042 228.41 102.937 226.58 102.129 225.717C101.32 224.853 99.1144 225.283 97.2017 226.678Z" fill="white"/>
<path opacity="0.78" d="M252.956 119.839C251.043 121.234 250.148 123.065 250.956 123.928C251.764 124.792 253.971 124.361 255.883 122.967C257.796 121.572 258.691 119.742 257.883 118.878C257.075 118.015 254.868 118.445 252.956 119.839Z" fill="white"/>
<path opacity="0.78" d="M92.2456 130.832C90.0804 129.838 87.9827 129.915 87.5605 131.005C87.138 132.095 88.5508 133.784 90.716 134.778C92.8813 135.772 94.9792 135.694 95.4013 134.604C95.8236 133.515 94.4108 131.826 92.2456 130.832Z" fill="white"/>
<path opacity="0.78" d="M262.369 214.867C260.204 213.873 258.106 213.95 257.684 215.04C257.262 216.13 258.674 217.819 260.84 218.813C263.005 219.807 265.103 219.729 265.525 218.64C265.947 217.55 264.534 215.861 262.369 214.867Z" fill="white"/>
<path opacity="0.78" d="M128.191 95.0286C126.876 93.0951 125.041 92.1115 124.093 92.8314C123.145 93.5514 123.443 95.7023 124.758 97.6357C126.073 99.569 127.908 100.553 128.855 99.8328C129.804 99.1129 129.506 96.9618 128.191 95.0286Z" fill="white"/>
<path opacity="0.78" d="M228.327 252.009C227.012 250.076 225.177 249.092 224.23 249.812C223.282 250.532 223.58 252.683 224.895 254.616C226.21 256.55 228.045 257.533 228.992 256.813C229.94 256.093 229.642 253.942 228.327 252.009Z" fill="white"/>
<path d="M185.03 170.568L254.882 204.155C256.235 204.806 257.819 203.829 257.773 202.371L257.499 193.702C257.445 192.016 259.505 191.082 260.819 192.197L311.324 235.068C312.869 236.38 311.598 238.815 309.585 238.401L244.537 225.01C242.98 224.69 242.417 222.829 243.55 221.752L251.166 214.512C252.107 213.617 251.904 212.104 250.759 211.468L183.14 173.965C182.199 173.442 181.862 172.291 182.382 171.371C182.897 170.46 184.067 170.105 185.03 170.568Z" fill="url(#paint2_linear_45_5679)"/>
<path opacity="0.63" d="M303.47 234.868C304.12 234.868 304.707 234.519 305.004 233.93C305.359 233.226 305.176 232.42 304.551 231.921L293.499 223.113C293.116 222.807 292.547 222.86 292.231 223.23C291.913 223.599 291.968 224.146 292.351 224.453L303.403 233.261C288.677 230.019 254.187 222.773 253.472 222.704C252.989 222.65 252.535 223.001 252.484 223.479C252.435 223.951 252.785 224.371 253.269 224.429C254.302 224.589 280.734 230.126 303.088 234.827C303.217 234.854 303.344 234.868 303.47 234.868Z" fill="white"/>
<path d="M177.743 167.26L177.882 101.415C177.859 99.9568 176.23 99.0506 174.91 99.7604L167.052 103.983C165.523 104.804 163.715 103.47 164.138 101.833L180.389 38.8774C180.886 36.9517 183.714 36.9189 184.258 38.8332L201.848 100.677C202.269 102.157 200.815 103.495 199.301 103.02L189.13 99.8313C187.873 99.4369 186.572 100.306 186.514 101.58L181.74 167.316C181.693 168.362 180.787 169.18 179.701 169.158C178.625 169.137 177.76 168.298 177.743 167.26Z" fill="url(#paint3_linear_45_5679)"/>
<path opacity="0.63" d="M196.451 94.6396C196.56 94.6396 196.671 94.6208 196.78 94.5802C197.237 94.407 197.465 93.9134 197.296 93.4705C196.969 92.5171 189.911 67.3419 183.956 46.0401C183.744 45.2869 183.08 44.7915 182.249 44.8102C181.438 44.8303 180.778 45.358 180.606 46.1231L177.577 59.6361C177.473 60.1044 177.782 60.5677 178.268 60.6678C178.75 60.7712 179.232 60.4727 179.339 60.0027L182.368 46.4897C186.156 60.5881 195.349 93.4418 195.612 94.0882C195.751 94.4309 196.091 94.6396 196.451 94.6396Z" fill="white"/>
<path d="M182.096 179.744C187.225 179.744 191.383 175.736 191.383 170.791C191.383 165.846 187.225 161.837 182.096 161.837C176.967 161.837 172.81 165.846 172.81 170.791C172.81 175.736 176.967 179.744 182.096 179.744Z" fill="url(#paint4_linear_45_5679)"/>
<path d="M87.4943 48.5829C87.4943 48.5829 47.7513 32.8381 47.0889 29.2787C49.4422 39.0995 53.8372 47.8825 53.8372 47.8825C53.8372 47.8825 85.9514 63.1102 95.931 60.8394C92.6342 54.3338 87.4943 48.5829 87.4943 48.5829Z" fill="#91B3FA"/>
<path opacity="0.7" d="M104.76 38.5088L115.177 49.8054C115.177 49.8054 82.3689 60.1353 69.302 49.8054C59.251 41.9441 58.7026 33.9894 58.7026 33.9894C58.7026 33.9894 82.2795 51.8058 104.76 38.5088Z" fill="white"/>
<path d="M69.9302 297.016H73.8581V254.515H69.9302V297.016Z" fill="url(#paint5_linear_45_5679)"/>
<path d="M75.1776 253.832V265.568C75.1776 266.363 74.468 266.861 73.6739 266.861H70.3069C69.5129 266.861 69.0288 266.363 69.0288 265.568V253.832H75.1776Z" fill="url(#paint6_linear_45_5679)"/>
<path d="M54.6929 297.835H89.0954V295.687C89.0954 295.46 88.9122 295.277 88.6862 295.277H55.1339C54.8904 295.277 54.6929 295.475 54.6929 295.718V297.835Z" fill="url(#paint7_linear_45_5679)"/>
<path d="M58.3294 246.309L63.3896 244.251L56.7792 227.977L51.719 230.035L58.3294 246.309Z" fill="url(#paint8_linear_45_5679)"/>
<path d="M23.9514 196.316C33.549 186.739 57.4245 180.734 66.008 195.047C66.008 195.047 77.0399 212.468 74.8775 228.164C73.6658 232.503 70.672 238.161 63.2852 238.145C51.312 238.119 44.9187 231.297 44.9187 231.297C39.4771 225.757 14.3538 205.894 23.9514 196.316Z" fill="url(#paint9_linear_45_5679)"/>
<path d="M76.9874 238.049C79.0934 238.203 81.078 238.41 81.5612 238.436C85.5252 238.65 89.8142 239.019 93.4549 240.739C94.3546 241.164 95.3337 241.851 96.2782 242.703C100.489 246.5 104.007 253.567 96.6998 255.268C89.2773 256.995 81.1267 256.204 73.5947 256.05C68.8953 255.954 64.2343 255.759 59.5658 255.188C56.2834 254.786 51.8001 255.836 49.0312 254.045C25.4638 238.802 76.9874 238.049 76.9874 238.049Z" fill="url(#paint10_linear_45_5679)"/>
<path d="M27.5123 198.82C27.5123 198.82 29.9103 188.361 37.2948 183.311C31.9341 178.001 32.4035 180.734 32.4035 180.734C32.4035 180.734 17.8561 188.541 17.2219 192.966C22.3101 197.91 27.5123 198.82 27.5123 198.82Z" fill="url(#paint11_linear_45_5679)"/>
<path d="M43.7925 198.076C43.7925 198.076 33.5883 205.196 28.2094 198.82L17.3682 192.445C17.3682 192.445 7.25919 221.04 43.7925 214.892C43.1186 205.327 43.7925 198.076 43.7925 198.076Z" fill="url(#paint12_linear_45_5679)"/>
<path d="M64.9457 177.83C64.9457 177.83 55.2673 173.206 46.7231 175.853C34.1109 175.333 47.747 170.417 47.747 170.417C47.747 170.417 62.9037 163.872 66.7611 166.126C67.4678 173.188 64.9457 177.83 64.9457 177.83Z" fill="url(#paint13_linear_45_5679)"/>
<path d="M54.24 190.125C54.24 190.125 68.781 184.375 64.1007 177.464L66.2627 165.917C66.2627 165.917 94.9313 175.775 67.4027 200.581C60.3353 194.106 54.24 190.125 54.24 190.125Z" fill="url(#paint14_linear_45_5679)"/>
<path d="M146.355 228.939C146.355 228.939 158.397 222.141 162.512 226.188C162.512 226.188 152.56 235.116 148.152 234.713C143.744 234.311 142.798 231.964 142.798 231.964L146.355 228.939Z" fill="url(#paint15_linear_45_5679)"/>
<path d="M139.497 227.629L143.542 231.518C144.152 232.105 145.096 232.236 145.806 231.776C146.162 231.545 146.557 231.188 146.976 230.643C147.566 229.875 147.579 228.806 146.993 228.034L144.162 224.309L139.497 227.629Z" fill="url(#paint16_linear_45_5679)"/>
<path d="M88.688 223.826C88.688 223.826 101.97 204.573 114.401 199.425C126.832 194.276 145.326 223.707 145.326 223.707C145.326 223.707 144.007 226.52 139.501 228.585C139.501 228.585 124.327 209.191 114.469 215.31C103.385 222.19 96.6574 232.91 96.6574 232.91L89.2336 224.324L88.688 223.826Z" fill="url(#paint17_linear_45_5679)"/>
<path d="M158.968 226.699C156.897 228.461 149.531 232.755 148.841 233.734C148.152 234.713 148.552 237.148 148.552 237.148C148.552 237.148 149.155 237.974 150.792 238.145C153.28 237.488 158.239 235.767 161.57 231.913C164.019 229.078 164.198 226.386 163.828 224.487C162.274 224.72 160.347 225.525 158.968 226.699Z" fill="url(#paint18_linear_45_5679)"/>
<path d="M161.569 231.913C158.239 235.767 153.28 237.488 150.792 238.145C151.899 238.261 153.477 238.077 155.662 237.137C161.081 234.806 165.884 227.79 166.383 226.055C166.783 224.664 165.528 224.233 163.828 224.488C164.197 226.386 164.019 229.078 161.569 231.913Z" fill="url(#paint19_linear_45_5679)"/>
<path d="M144.542 237.601C145.171 237.861 147.87 237.577 149.397 237.388C150.123 237.298 150.751 236.843 151.06 236.18C151.255 235.759 151.442 235.257 151.519 234.759C151.634 234.011 151.102 233.315 150.354 233.204L144.771 232.373L144.542 237.601Z" fill="url(#paint20_linear_45_5679)"/>
<path d="M73.1138 241.071C73.1138 241.071 83.3897 251.456 89.3115 248.553C95.2334 245.651 104.602 236.528 113.268 237.526C121.935 238.525 138.495 241.076 146.269 237.844C146.269 237.844 147.71 233.715 146.819 231.509C146.819 231.509 123.513 224.629 116.938 224.155C111.243 223.744 102.999 223.205 96.7018 226.564C94.8993 227.526 93.244 226.448 91.8371 224.967L89.2753 222.268L73.1138 241.071Z" fill="url(#paint21_linear_45_5679)"/>
<path d="M37.2947 209.801C37.2947 209.801 37.9894 196.367 65.1348 183.311C65.1348 183.311 66.347 186.004 68.7049 189.425C71.0629 192.847 81.6687 215.7 89.2756 222.268C89.2756 222.268 87.7838 234.819 74.1711 242.223C74.171 242.223 50.2263 229.953 37.2947 209.801Z" fill="url(#paint22_linear_45_5679)"/>
<path d="M40.5825 187.118L46.0661 199.236C46.4817 200.1 47.3594 200.654 48.3177 200.632C50.2545 200.587 53.4018 199.811 54.965 195.588C55.4299 194.331 55.1942 192.92 54.3442 191.884L48.0824 184.257L40.5825 187.118Z" fill="url(#paint23_linear_45_5679)"/>
<path d="M40.6237 170.19C40.7954 170.257 49.6393 177.845 54.1435 181.715C55.5186 182.897 55.5557 185.011 54.2256 186.243L53.2064 187.187C51.8135 188.477 48.4897 190.325 46.6988 189.697L34.6375 183.559C34.6375 183.559 36.7662 168.686 40.6237 170.19Z" fill="url(#paint24_linear_45_5679)"/>
<path d="M31.2686 181.912C29.9785 181.691 28.2501 180.927 28.4868 178.404C28.7272 175.839 30.681 174.928 32.0334 174.605C32.5802 174.474 32.9374 173.969 32.9101 173.407C32.8945 173.087 33.0174 172.756 33.4531 172.519C34.0402 172.199 34.2005 171.426 33.8216 170.874C33.0936 169.816 32.5815 168.208 34.0569 166.399C36.6749 163.189 40.8387 165.015 42.6152 167.258C44.3918 169.501 41.3557 172.82 39.1104 174.076C37.4034 175.031 37.2626 177.443 37.2932 178.545C37.3029 178.894 37.4725 179.217 37.751 179.427L41.8583 182.531C41.4533 183.715 41.1504 184.921 40.861 186.136C40.5294 185.963 40.243 185.822 40.0257 185.73C38.4904 185.081 36.6264 186.362 35.8821 186.956C35.6382 187.151 35.3279 187.236 35.0187 187.194C33.9256 187.045 31.5845 186.368 32.2101 183.287C32.3411 182.643 31.9166 182.024 31.2686 181.912Z" fill="url(#paint25_linear_45_5679)"/>
<path d="M42.4476 187.523C42.4476 187.523 39.1845 183.747 37.3343 184.681C35.4839 185.616 34.7469 188.133 37.986 189.321C42.015 190.797 42.4476 187.523 42.4476 187.523Z" fill="url(#paint26_linear_45_5679)"/>
<path d="M87.7266 300.579C89.0913 300.579 90.1976 299.472 90.1976 298.107C90.1976 296.741 89.0913 295.634 87.7266 295.634C86.3619 295.634 85.2556 296.741 85.2556 298.107C85.2556 299.472 86.3619 300.579 87.7266 300.579Z" fill="url(#paint27_linear_45_5679)"/>
<path d="M86.426 298.042C86.426 298.724 86.9792 299.278 87.6615 299.278C88.3438 299.278 88.897 298.724 88.897 298.042C88.897 297.359 88.3438 296.805 87.6615 296.805C86.9792 296.805 86.426 297.359 86.426 298.042Z" fill="url(#paint28_linear_45_5679)"/>
<path d="M57.2942 300.579C58.6589 300.579 59.7652 299.472 59.7652 298.107C59.7652 296.741 58.6589 295.634 57.2942 295.634C55.9295 295.634 54.8232 296.741 54.8232 298.107C54.8232 299.472 55.9295 300.579 57.2942 300.579Z" fill="url(#paint29_linear_45_5679)"/>
<path d="M55.9937 298.042C55.9937 298.724 56.5467 299.278 57.2292 299.278C57.9115 299.278 58.4647 298.724 58.4647 298.042C58.4647 297.359 57.9115 296.805 57.2292 296.805C56.5467 296.805 55.9937 297.359 55.9937 298.042Z" fill="url(#paint30_linear_45_5679)"/>
<path d="M123.482 233.796C123.51 233.798 123.538 233.798 123.566 233.798L160.072 233.758C160.975 233.758 161.705 233.025 161.705 232.122C161.704 231.219 160.969 230.472 160.069 230.489L123.562 230.529C122.66 230.529 121.929 231.262 121.93 232.165C121.931 233.04 122.619 233.754 123.482 233.796Z" fill="url(#paint31_linear_45_5679)"/>
<path d="M192.89 200.633H162.487C160.244 200.633 158.203 201.928 157.246 203.957L143.191 233.777H180.974C182.419 233.777 183.717 232.893 184.249 231.548L195.148 203.955C195.778 202.36 194.603 200.633 192.89 200.633Z" fill="url(#paint32_linear_45_5679)"/>
<path d="M183.963 304.7C184.147 304.7 184.333 304.664 184.513 304.589C185.219 304.295 185.545 303.502 185.241 302.817L156.039 237.059C155.736 236.375 154.917 236.059 154.21 236.353C153.504 236.647 153.177 237.44 153.481 238.125L182.683 303.883C182.91 304.394 183.423 304.7 183.963 304.7Z" fill="#BDD0FB"/>
<path d="M151.066 304.7C151.605 304.7 152.119 304.394 152.345 303.883L181.547 238.125C181.851 237.44 181.525 236.647 180.819 236.353C180.113 236.058 179.293 236.374 178.989 237.059L149.787 302.817C149.483 303.502 149.809 304.295 150.516 304.589C150.695 304.664 150.882 304.7 151.066 304.7Z" fill="#BDD0FB"/>
<path d="M93.5698 304.7C93.7534 304.7 93.9399 304.664 94.1193 304.589C94.8258 304.295 95.1521 303.502 94.8482 302.817L65.646 237.059C65.3421 236.375 64.524 236.059 63.8166 236.353C63.1103 236.647 62.7839 237.44 63.0878 238.125L92.29 303.883C92.5167 304.394 93.0302 304.7 93.5698 304.7Z" fill="#BDD0FB"/>
<path d="M60.6727 304.7C61.2123 304.7 61.7258 304.394 61.9524 303.883L91.1546 238.125C91.4585 237.44 91.1322 236.647 90.4258 236.353C89.7198 236.058 88.9005 236.374 88.5964 237.059L59.3942 302.817C59.0903 303.502 59.4166 304.295 60.123 304.589C60.3022 304.664 60.489 304.7 60.6727 304.7Z" fill="#BDD0FB"/>
<path d="M57.2473 235.028C57.1728 234.597 57.2743 234.151 57.5239 233.812C57.7734 233.474 58.1451 233.277 58.5373 233.277H191.386C191.902 233.277 192.382 233.572 192.66 234.058C192.938 234.545 192.975 235.157 192.759 235.681L191.319 239.172C190.989 239.971 190.275 240.483 189.489 240.483H59.4488C58.7176 240.483 58.0893 239.902 57.9504 239.098L57.2473 235.028Z" fill="#BDD0FB"/>
<path d="M137.774 288.843L139.109 308.909C139.342 312.408 142.31 315.097 145.83 314.997L193.919 313.63C196.271 313.563 198.217 311.785 198.48 309.455C199.058 304.357 199.705 295.247 198.334 286.764L137.774 288.843Z" fill="url(#paint33_linear_45_5679)"/>
<path d="M147.186 313.811C147.113 313.811 147.052 313.753 147.05 313.679C147.048 313.604 147.107 313.541 147.182 313.539L148.267 313.509C148.268 313.509 148.27 313.509 148.271 313.509C148.344 313.509 148.404 313.567 148.406 313.64C148.408 313.715 148.349 313.778 148.275 313.78L147.19 313.811C147.188 313.811 147.187 313.811 147.186 313.811ZM150.801 313.708C150.728 313.708 150.668 313.65 150.666 313.576C150.664 313.501 150.723 313.439 150.798 313.437L151.882 313.406C151.884 313.406 151.885 313.406 151.886 313.406C151.959 313.406 152.02 313.464 152.022 313.537C152.024 313.612 151.965 313.675 151.89 313.677L150.805 313.708C150.804 313.708 150.803 313.708 150.801 313.708ZM154.417 313.605C154.344 313.605 154.284 313.547 154.282 313.473C154.279 313.398 154.338 313.336 154.413 313.334L155.498 313.303C155.499 313.303 155.501 313.303 155.502 313.303C155.575 313.303 155.635 313.361 155.637 313.435C155.64 313.51 155.581 313.572 155.506 313.574L154.421 313.605C154.42 313.605 154.418 313.605 154.417 313.605ZM158.033 313.502C157.96 313.502 157.899 313.444 157.897 313.37C157.895 313.296 157.954 313.233 158.029 313.231L159.114 313.2C159.115 313.2 159.116 313.2 159.117 313.2C159.191 313.2 159.251 313.258 159.253 313.332C159.255 313.407 159.196 313.469 159.121 313.471L158.037 313.502C158.035 313.502 158.034 313.502 158.033 313.502ZM144.693 313.479C144.678 313.479 144.663 313.476 144.648 313.471C144.301 313.35 143.96 313.199 143.638 313.019C143.573 312.983 143.549 312.9 143.585 312.835C143.622 312.769 143.703 312.746 143.77 312.782C144.078 312.954 144.404 313.099 144.737 313.214C144.808 313.239 144.845 313.316 144.821 313.387C144.802 313.443 144.749 313.479 144.693 313.479ZM161.648 313.4C161.575 313.4 161.515 313.341 161.513 313.268C161.511 313.193 161.57 313.13 161.644 313.128L162.729 313.097C162.731 313.097 162.732 313.097 162.733 313.097C162.806 313.097 162.867 313.156 162.869 313.229C162.871 313.304 162.812 313.367 162.737 313.369L161.652 313.4C161.651 313.4 161.649 313.4 161.648 313.4ZM165.264 313.297C165.191 313.297 165.13 313.238 165.128 313.165C165.126 313.09 165.185 313.027 165.26 313.025L166.344 312.995C166.346 312.995 166.347 312.995 166.348 312.995C166.421 312.995 166.482 313.053 166.484 313.126C166.486 313.201 166.427 313.264 166.352 313.266L165.268 313.297C165.266 313.297 165.265 313.297 165.264 313.297ZM168.879 313.194C168.806 313.194 168.746 313.136 168.744 313.062C168.742 312.987 168.801 312.925 168.876 312.923L169.96 312.892C169.961 312.892 169.963 312.892 169.964 312.892C170.037 312.892 170.097 312.95 170.099 313.024C170.102 313.098 170.043 313.161 169.968 313.163L168.883 313.194C168.882 313.194 168.88 313.194 168.879 313.194ZM172.495 313.091C172.422 313.091 172.361 313.033 172.359 312.959C172.357 312.885 172.416 312.822 172.491 312.82L173.576 312.789C173.577 312.789 173.578 312.789 173.579 312.789C173.653 312.789 173.713 312.847 173.715 312.921C173.717 312.996 173.658 313.058 173.583 313.06L172.499 313.091C172.497 313.091 172.496 313.091 172.495 313.091ZM176.11 312.988C176.037 312.988 175.977 312.93 175.975 312.857C175.973 312.782 176.032 312.719 176.106 312.717L177.191 312.686C177.193 312.686 177.194 312.686 177.195 312.686C177.268 312.686 177.329 312.744 177.331 312.818C177.333 312.893 177.274 312.955 177.199 312.957L176.114 312.988C176.113 312.988 176.111 312.988 176.11 312.988ZM179.726 312.886C179.653 312.886 179.592 312.827 179.59 312.754C179.588 312.679 179.647 312.616 179.722 312.614L180.807 312.583C180.808 312.583 180.809 312.583 180.811 312.583C180.884 312.583 180.944 312.642 180.946 312.715C180.948 312.79 180.889 312.853 180.814 312.855L179.73 312.886C179.728 312.886 179.727 312.886 179.726 312.886ZM183.341 312.783C183.268 312.783 183.208 312.725 183.206 312.651C183.204 312.576 183.263 312.514 183.338 312.511L184.422 312.481C184.424 312.481 184.425 312.481 184.426 312.481C184.499 312.481 184.56 312.539 184.562 312.612C184.564 312.687 184.505 312.75 184.43 312.752L183.345 312.783C183.344 312.783 183.343 312.783 183.341 312.783ZM186.957 312.68C186.884 312.68 186.823 312.622 186.821 312.548C186.819 312.473 186.878 312.411 186.953 312.409L188.038 312.378C188.039 312.378 188.041 312.378 188.042 312.378C188.115 312.378 188.175 312.436 188.177 312.509C188.18 312.584 188.121 312.647 188.046 312.649L186.961 312.68C186.96 312.68 186.958 312.68 186.957 312.68ZM190.573 312.577C190.5 312.577 190.439 312.519 190.437 312.445C190.435 312.37 190.494 312.308 190.569 312.306L191.654 312.275C191.655 312.275 191.656 312.275 191.658 312.275C191.731 312.275 191.791 312.333 191.793 312.407C191.795 312.482 191.736 312.544 191.661 312.546L190.577 312.577C190.575 312.577 190.574 312.577 190.573 312.577ZM194.153 312.227C194.099 312.227 194.047 312.193 194.027 312.139C194 312.069 194.035 311.991 194.105 311.964C194.433 311.84 194.746 311.676 195.035 311.476C195.097 311.433 195.181 311.449 195.224 311.511C195.266 311.573 195.251 311.657 195.189 311.7C194.882 311.912 194.55 312.086 194.201 312.218C194.185 312.224 194.169 312.227 194.153 312.227ZM141.797 311.398C141.756 311.398 141.716 311.38 141.689 311.345C141.463 311.052 141.262 310.738 141.091 310.413C141.056 310.346 141.082 310.264 141.148 310.23C141.215 310.195 141.296 310.22 141.331 310.287C141.495 310.598 141.687 310.898 141.904 311.179C141.95 311.238 141.939 311.324 141.88 311.369C141.855 311.389 141.826 311.398 141.797 311.398ZM196.694 309.79C196.676 309.79 196.658 309.787 196.641 309.779C196.572 309.75 196.54 309.67 196.569 309.601C196.706 309.279 196.804 308.94 196.86 308.593C196.871 308.519 196.941 308.468 197.015 308.48C197.089 308.492 197.139 308.562 197.127 308.635C197.069 309.004 196.965 309.365 196.819 309.708C196.797 309.759 196.747 309.79 196.694 309.79ZM140.522 308.067C140.45 308.067 140.391 308.01 140.387 307.938L140.315 306.857C140.31 306.782 140.367 306.717 140.442 306.712C140.514 306.708 140.581 306.764 140.586 306.839L140.658 307.924C140.662 307.999 140.604 308.063 140.529 308.067C140.527 308.067 140.524 308.067 140.522 308.067ZM197.257 306.23C197.253 306.23 197.249 306.23 197.245 306.23C197.17 306.223 197.115 306.157 197.122 306.082C197.153 305.733 197.184 305.373 197.213 305.002C197.219 304.927 197.285 304.873 197.359 304.877C197.434 304.883 197.489 304.948 197.483 305.023C197.454 305.395 197.423 305.756 197.392 306.107C197.386 306.177 197.326 306.23 197.257 306.23ZM140.282 304.456C140.211 304.456 140.152 304.401 140.147 304.329L140.075 303.245C140.07 303.171 140.126 303.106 140.201 303.101C140.273 303.094 140.341 303.153 140.345 303.227L140.418 304.311C140.422 304.386 140.366 304.45 140.291 304.455C140.288 304.455 140.285 304.456 140.282 304.456ZM197.518 302.62C197.515 302.62 197.513 302.62 197.51 302.62C197.435 302.616 197.378 302.552 197.382 302.477C197.402 302.122 197.419 301.761 197.435 301.394C197.438 301.321 197.498 301.264 197.571 301.264C197.572 301.264 197.575 301.264 197.577 301.264C197.651 301.267 197.709 301.33 197.706 301.405C197.69 301.773 197.673 302.136 197.653 302.492C197.649 302.564 197.589 302.62 197.518 302.62ZM140.042 300.845C139.971 300.845 139.911 300.79 139.907 300.718L139.835 299.634C139.83 299.56 139.886 299.495 139.961 299.49C140.034 299.484 140.1 299.542 140.105 299.616L140.177 300.7C140.182 300.774 140.126 300.839 140.051 300.844C140.048 300.844 140.045 300.845 140.042 300.845ZM197.646 299.003C197.646 299.003 197.645 299.003 197.644 299.003C197.569 299.002 197.51 298.94 197.511 298.865C197.516 298.508 197.52 298.146 197.521 297.781C197.521 297.707 197.582 297.646 197.657 297.646H197.657C197.732 297.646 197.793 297.707 197.792 297.782C197.791 298.148 197.787 298.511 197.782 298.87C197.781 298.944 197.72 299.003 197.646 299.003ZM139.802 297.233C139.731 297.233 139.672 297.178 139.667 297.107L139.595 296.024C139.59 295.949 139.646 295.884 139.721 295.879C139.803 295.874 139.86 295.931 139.865 296.006L139.937 297.089C139.942 297.164 139.886 297.228 139.811 297.233C139.808 297.233 139.805 297.233 139.802 297.233ZM197.63 295.385C197.556 295.385 197.496 295.326 197.494 295.253C197.485 294.894 197.472 294.532 197.458 294.17C197.455 294.095 197.513 294.032 197.588 294.029C197.59 294.029 197.592 294.029 197.593 294.029C197.666 294.029 197.726 294.086 197.729 294.159C197.744 294.523 197.756 294.885 197.765 295.246C197.767 295.32 197.708 295.383 197.633 295.385C197.632 295.385 197.631 295.385 197.63 295.385ZM139.562 293.622C139.491 293.622 139.431 293.567 139.427 293.496L139.355 292.412C139.35 292.338 139.406 292.273 139.481 292.268C139.563 292.263 139.62 292.32 139.625 292.394L139.697 293.478C139.702 293.552 139.646 293.617 139.571 293.622C139.568 293.622 139.565 293.622 139.562 293.622ZM197.446 291.771C197.375 291.771 197.316 291.717 197.31 291.646C197.283 291.286 197.252 290.926 197.219 290.566C197.212 290.492 197.267 290.425 197.342 290.419C197.425 290.413 197.483 290.467 197.489 290.541C197.523 290.903 197.553 291.264 197.581 291.625C197.586 291.7 197.531 291.765 197.456 291.771C197.452 291.771 197.449 291.771 197.446 291.771ZM139.322 290.011C139.251 290.011 139.191 289.956 139.186 289.885L139.105 288.662L140.275 288.621C140.344 288.623 140.413 288.678 140.415 288.753C140.418 288.827 140.359 288.89 140.284 288.893L139.394 288.923L139.457 289.867C139.462 289.941 139.405 290.006 139.331 290.011C139.328 290.011 139.325 290.011 139.322 290.011ZM142.81 288.806C142.737 288.806 142.677 288.748 142.675 288.675C142.672 288.6 142.731 288.537 142.806 288.534L143.89 288.497C143.96 288.493 144.028 288.554 144.03 288.628C144.033 288.703 143.974 288.766 143.899 288.769L142.815 288.806C142.813 288.806 142.812 288.806 142.81 288.806ZM146.425 288.682C146.352 288.682 146.292 288.624 146.289 288.551C146.287 288.476 146.346 288.413 146.421 288.41L147.505 288.373C147.576 288.372 147.643 288.429 147.645 288.504C147.648 288.579 147.589 288.642 147.514 288.645L146.43 288.682C146.428 288.682 146.427 288.682 146.425 288.682ZM150.04 288.558C149.967 288.558 149.907 288.5 149.904 288.426C149.902 288.351 149.961 288.289 150.035 288.286L151.12 288.249C151.192 288.251 151.257 288.305 151.26 288.38C151.263 288.455 151.204 288.518 151.129 288.52L150.045 288.558C150.043 288.558 150.041 288.558 150.04 288.558ZM153.655 288.434C153.582 288.434 153.522 288.376 153.519 288.302C153.517 288.227 153.575 288.165 153.65 288.162L154.735 288.125C154.809 288.122 154.872 288.181 154.875 288.256C154.878 288.331 154.819 288.394 154.744 288.396L153.66 288.434C153.658 288.434 153.656 288.434 153.655 288.434ZM157.27 288.309C157.197 288.309 157.137 288.252 157.134 288.178C157.132 288.103 157.19 288.041 157.265 288.038L158.35 288.001C158.424 288.001 158.487 288.057 158.49 288.132C158.492 288.207 158.434 288.27 158.359 288.272L157.274 288.309C157.273 288.309 157.271 288.309 157.27 288.309ZM160.885 288.185C160.812 288.185 160.751 288.127 160.749 288.054C160.746 287.979 160.805 287.916 160.88 287.914L161.964 287.877C162.041 287.88 162.102 287.933 162.105 288.008C162.107 288.083 162.049 288.145 161.974 288.148L160.889 288.185C160.888 288.185 160.886 288.185 160.885 288.185ZM197.065 288.173C196.998 288.173 196.94 288.124 196.931 288.056C196.881 287.697 196.828 287.34 196.772 286.984C196.761 286.91 196.811 286.84 196.885 286.829C196.963 286.816 197.029 286.868 197.04 286.942C197.097 287.3 197.15 287.659 197.199 288.018C197.209 288.093 197.158 288.161 197.083 288.171C197.077 288.172 197.071 288.173 197.065 288.173ZM164.499 288.061C164.427 288.061 164.366 288.003 164.364 287.93C164.361 287.855 164.42 287.792 164.495 287.79L165.579 287.752C165.657 287.75 165.717 287.809 165.72 287.884C165.722 287.958 165.663 288.021 165.589 288.024L164.504 288.061C164.503 288.061 164.501 288.061 164.499 288.061ZM168.114 287.937C168.041 287.937 167.981 287.879 167.978 287.806C167.976 287.731 168.035 287.668 168.109 287.666L169.194 287.628C169.273 287.63 169.332 287.685 169.335 287.76C169.337 287.834 169.278 287.897 169.203 287.9L168.119 287.937C168.117 287.937 168.115 287.937 168.114 287.937ZM171.729 287.813C171.656 287.813 171.596 287.755 171.593 287.682C171.591 287.607 171.649 287.544 171.724 287.541L172.809 287.504C172.889 287.5 172.947 287.561 172.949 287.635C172.952 287.71 172.893 287.773 172.818 287.776L171.734 287.813C171.732 287.813 171.73 287.813 171.729 287.813ZM175.344 287.689C175.271 287.689 175.211 287.631 175.208 287.558C175.206 287.483 175.264 287.42 175.339 287.417L176.424 287.38C176.505 287.379 176.562 287.436 176.564 287.511C176.567 287.586 176.508 287.649 176.433 287.652L175.348 287.689C175.347 287.689 175.345 287.689 175.344 287.689ZM178.959 287.565C178.886 287.565 178.825 287.507 178.823 287.434C178.821 287.359 178.879 287.296 178.954 287.293L180.039 287.256C180.121 287.259 180.177 287.312 180.179 287.387C180.182 287.462 180.123 287.525 180.048 287.527L178.963 287.565C178.962 287.565 178.96 287.565 178.959 287.565ZM182.574 287.441C182.501 287.441 182.44 287.383 182.438 287.309C182.435 287.234 182.494 287.172 182.569 287.169L183.654 287.132C183.719 287.129 183.791 287.188 183.794 287.263C183.796 287.338 183.738 287.401 183.663 287.403L182.578 287.441C182.577 287.441 182.575 287.441 182.574 287.441ZM186.188 287.316C186.116 287.316 186.055 287.259 186.053 287.185C186.05 287.11 186.109 287.048 186.184 287.045L187.269 287.008C187.335 287.008 187.406 287.064 187.409 287.139C187.411 287.214 187.353 287.277 187.278 287.279L186.193 287.316C186.192 287.316 186.19 287.316 186.188 287.316ZM189.803 287.192C189.731 287.192 189.67 287.135 189.668 287.061C189.665 286.986 189.724 286.924 189.799 286.921L190.884 286.884C190.951 286.888 191.021 286.94 191.024 287.015C191.026 287.09 190.968 287.153 190.893 287.155L189.808 287.192C189.807 287.192 189.805 287.192 189.803 287.192ZM193.418 287.068C193.345 287.068 193.285 287.01 193.283 286.937C193.28 286.862 193.339 286.799 193.414 286.797L194.498 286.76C194.567 286.758 194.636 286.816 194.639 286.891C194.641 286.966 194.583 287.028 194.508 287.031L193.423 287.068C193.421 287.068 193.42 287.068 193.418 287.068Z" fill="white"/>
<path d="M151.365 273.776L151.456 272.222C151.607 271.846 151.937 271.573 152.335 271.495C153.825 271.205 157.525 270.658 159.36 271.934L159.689 273.725L151.365 273.776Z" fill="url(#paint34_linear_45_5679)"/>
<path d="M155.993 272.125C155.651 272.221 155.305 272.232 154.956 272.159C154.534 272.07 154.225 271.706 154.211 271.276L154.044 266.425L156.512 266.34L156.678 271.188C156.693 271.619 156.41 272.007 155.993 272.125Z" fill="url(#paint35_linear_45_5679)"/>
<path d="M175.264 272.955L175.355 271.401C175.506 271.025 175.836 270.752 176.235 270.674C177.724 270.384 181.425 269.838 183.259 271.114L183.588 272.905L175.264 272.955Z" fill="url(#paint36_linear_45_5679)"/>
<path d="M179.892 271.304C179.55 271.4 179.204 271.412 178.855 271.338C178.433 271.25 178.125 270.885 178.11 270.455L177.926 265.093L180.393 265.008L180.577 270.367C180.592 270.799 180.309 271.187 179.892 271.304Z" fill="url(#paint37_linear_45_5679)"/>
<path d="M153.835 267.622L180.34 265.832C180.945 265.792 181.443 265.337 181.526 264.74C181.643 263.904 181.729 262.655 181.493 261.372C181.226 259.912 179.927 258.866 178.438 258.882C173.483 258.934 160.881 259.37 154.03 262.357C153.305 262.673 152.782 263.32 152.622 264.092C152.47 264.828 152.385 265.806 152.651 266.79C152.792 267.313 153.292 267.659 153.835 267.622Z" fill="url(#paint38_linear_45_5679)"/>
<path d="M153.324 266.503C153.145 266.503 152.99 266.372 152.965 266.19C152.96 266.147 152.823 265.108 153.06 264.095C153.251 263.276 153.871 262.601 154.676 262.335C156.15 261.846 158.973 261.005 161.306 260.859C161.511 260.843 161.677 260.998 161.69 261.198C161.702 261.397 161.55 261.569 161.351 261.581C159.015 261.727 156.063 262.637 154.903 263.022C154.335 263.21 153.899 263.684 153.764 264.26C153.558 265.14 153.681 266.084 153.682 266.093C153.709 266.291 153.57 266.473 153.372 266.5C153.356 266.502 153.34 266.503 153.324 266.503Z" fill="#91B3FA"/>
<path d="M139.032 273.595C147.601 273.191 184.674 271.528 195.491 272.458C196.423 272.538 197.203 273.192 197.435 274.093C198.17 276.951 199.68 283.596 199.756 290.231C199.766 291.134 199.131 291.918 198.246 292.117L173.816 297.616L165.081 297.916L138.701 293.605C137.771 293.453 137.063 292.694 136.983 291.758C136.698 288.428 136.164 280.611 136.893 275.542C137.047 274.465 137.941 273.647 139.032 273.595Z" fill="url(#paint39_linear_45_5679)"/>
<path d="M165.216 295.925C165.209 295.925 165.202 295.924 165.194 295.923L164.123 295.748C164.049 295.736 163.999 295.666 164.011 295.592C164.023 295.518 164.088 295.467 164.167 295.48L165.238 295.655C165.312 295.667 165.362 295.737 165.35 295.811C165.339 295.877 165.282 295.925 165.216 295.925ZM166.776 295.871C166.703 295.871 166.643 295.813 166.64 295.74C166.638 295.665 166.696 295.602 166.771 295.6L167.856 295.562C167.938 295.562 167.993 295.619 167.996 295.694C167.998 295.768 167.94 295.831 167.865 295.834L166.78 295.871C166.779 295.871 166.777 295.871 166.776 295.871ZM170.391 295.747C170.318 295.747 170.257 295.689 170.255 295.616C170.252 295.541 170.311 295.478 170.386 295.476L171.47 295.438C171.535 295.441 171.608 295.495 171.611 295.57C171.613 295.644 171.555 295.707 171.48 295.71L170.395 295.747C170.394 295.747 170.392 295.747 170.391 295.747ZM173.994 295.537C173.932 295.537 173.876 295.495 173.862 295.431C173.846 295.358 173.892 295.286 173.965 295.269L175.023 295.031C175.095 295.014 175.168 295.06 175.185 295.134C175.202 295.207 175.156 295.279 175.083 295.296L174.024 295.534C174.014 295.536 174.004 295.537 173.994 295.537ZM161.646 295.341C161.639 295.341 161.632 295.341 161.625 295.34L160.554 295.165C160.48 295.153 160.43 295.083 160.442 295.009C160.454 294.935 160.522 294.884 160.597 294.897L161.668 295.072C161.742 295.084 161.792 295.153 161.78 295.227C161.769 295.294 161.712 295.341 161.646 295.341ZM158.077 294.758C158.07 294.758 158.062 294.757 158.055 294.756L156.984 294.581C156.91 294.569 156.86 294.499 156.872 294.425C156.884 294.352 156.952 294.3 157.028 294.313L158.099 294.488C158.173 294.5 158.223 294.57 158.211 294.644C158.2 294.711 158.142 294.758 158.077 294.758ZM177.523 294.743C177.461 294.743 177.405 294.701 177.391 294.637C177.374 294.564 177.42 294.492 177.493 294.475L178.552 294.237C178.623 294.219 178.698 294.266 178.714 294.339C178.73 294.412 178.684 294.485 178.611 294.502L177.553 294.74C177.543 294.742 177.533 294.743 177.523 294.743ZM154.507 294.174C154.5 294.174 154.493 294.174 154.485 294.173L153.414 293.998C153.34 293.986 153.29 293.916 153.302 293.842C153.314 293.768 153.382 293.717 153.458 293.73L154.529 293.905C154.603 293.917 154.653 293.987 154.641 294.061C154.63 294.127 154.573 294.174 154.507 294.174ZM181.052 293.949C180.99 293.949 180.934 293.906 180.919 293.843C180.903 293.77 180.949 293.697 181.022 293.681L182.081 293.442C182.152 293.425 182.226 293.472 182.243 293.545C182.259 293.618 182.213 293.691 182.14 293.707L181.081 293.946C181.072 293.948 181.062 293.949 181.052 293.949ZM150.938 293.591C150.931 293.591 150.923 293.59 150.916 293.589L149.845 293.414C149.771 293.402 149.721 293.332 149.733 293.258C149.745 293.185 149.812 293.132 149.888 293.146L150.959 293.321C151.033 293.333 151.083 293.403 151.071 293.477C151.06 293.544 151.003 293.591 150.938 293.591ZM184.581 293.155C184.519 293.155 184.463 293.112 184.448 293.049C184.432 292.976 184.478 292.903 184.551 292.887L185.61 292.648C185.682 292.632 185.755 292.678 185.772 292.751C185.788 292.824 185.742 292.896 185.669 292.913L184.611 293.151C184.601 293.154 184.591 293.155 184.581 293.155ZM147.368 293.008C147.361 293.008 147.353 293.007 147.346 293.006L146.275 292.831C146.201 292.819 146.151 292.749 146.163 292.675C146.175 292.601 146.243 292.549 146.319 292.563L147.39 292.738C147.464 292.75 147.514 292.82 147.502 292.894C147.491 292.96 147.433 293.008 147.368 293.008ZM143.798 292.424C143.791 292.424 143.784 292.424 143.776 292.422L142.705 292.247C142.631 292.235 142.581 292.166 142.593 292.092C142.605 292.018 142.672 291.966 142.749 291.98L143.82 292.155C143.894 292.167 143.944 292.236 143.932 292.31C143.921 292.377 143.863 292.424 143.798 292.424ZM188.11 292.36C188.047 292.36 187.992 292.318 187.977 292.254C187.961 292.181 188.007 292.109 188.08 292.092L189.138 291.854C189.21 291.837 189.284 291.883 189.301 291.956C189.317 292.029 189.271 292.102 189.198 292.119L188.139 292.357C188.129 292.359 188.12 292.36 188.11 292.36ZM140.228 291.841C140.221 291.841 140.214 291.84 140.207 291.839L139.136 291.664C139.062 291.652 139.012 291.582 139.024 291.508C139.036 291.434 139.103 291.382 139.179 291.396L140.25 291.571C140.324 291.583 140.374 291.653 140.362 291.727C140.351 291.793 140.294 291.841 140.228 291.841ZM191.638 291.566C191.576 291.566 191.52 291.523 191.506 291.46C191.49 291.387 191.535 291.314 191.609 291.298L192.667 291.06C192.739 291.043 192.812 291.089 192.829 291.162C192.845 291.235 192.8 291.308 192.726 291.324L191.668 291.563C191.658 291.565 191.648 291.566 191.638 291.566ZM195.167 290.772C195.105 290.772 195.049 290.729 195.035 290.666C195.019 290.593 195.065 290.52 195.138 290.504L196.196 290.265C196.267 290.249 196.342 290.295 196.358 290.368C196.375 290.441 196.329 290.514 196.256 290.53L195.197 290.768C195.187 290.771 195.177 290.772 195.167 290.772ZM138.905 289.195C138.834 289.195 138.774 289.14 138.769 289.069C138.746 288.722 138.724 288.36 138.702 287.983C138.697 287.909 138.755 287.844 138.829 287.84C138.904 287.835 138.968 287.893 138.972 287.968C138.994 288.343 139.017 288.705 139.04 289.051C139.045 289.125 138.988 289.19 138.913 289.195C138.911 289.195 138.907 289.195 138.905 289.195ZM197.604 289.127C197.531 289.127 197.471 289.07 197.468 288.996C197.454 288.635 197.436 288.274 197.414 287.915C197.41 287.84 197.467 287.776 197.542 287.771C197.626 287.762 197.68 287.824 197.685 287.898C197.707 288.26 197.725 288.623 197.739 288.986C197.742 289.061 197.684 289.124 197.609 289.127C197.607 289.127 197.605 289.127 197.604 289.127ZM138.715 285.58C138.642 285.58 138.582 285.523 138.58 285.449C138.566 285.092 138.554 284.729 138.544 284.362C138.542 284.288 138.601 284.225 138.676 284.223C138.762 284.228 138.813 284.28 138.816 284.355C138.825 284.721 138.838 285.082 138.851 285.439C138.854 285.514 138.795 285.577 138.72 285.58C138.719 285.58 138.717 285.58 138.715 285.58ZM197.339 285.517C197.27 285.517 197.211 285.465 197.204 285.395C197.166 285.033 197.125 284.674 197.082 284.318C197.073 284.244 197.126 284.176 197.2 284.167C197.275 284.158 197.342 284.211 197.351 284.286C197.394 284.642 197.436 285.003 197.474 285.367C197.482 285.442 197.428 285.508 197.353 285.516C197.349 285.517 197.344 285.517 197.339 285.517ZM138.645 281.961C138.57 281.961 138.51 281.9 138.51 281.825C138.51 281.461 138.513 281.097 138.519 280.737C138.521 280.662 138.581 280.603 138.655 280.603C138.656 280.603 138.656 280.603 138.657 280.603C138.732 280.604 138.792 280.666 138.791 280.741C138.785 281.101 138.781 281.463 138.781 281.825C138.781 281.9 138.72 281.961 138.645 281.961ZM196.863 281.928C196.797 281.928 196.74 281.881 196.729 281.814C196.671 281.45 196.612 281.093 196.552 280.744C196.539 280.67 196.589 280.6 196.662 280.587C196.738 280.575 196.806 280.624 196.819 280.698C196.88 281.048 196.939 281.406 196.997 281.771C197.009 281.845 196.958 281.915 196.884 281.927C196.877 281.928 196.87 281.928 196.863 281.928ZM196.213 278.367C196.15 278.367 196.094 278.323 196.081 278.258C196.004 277.887 195.928 277.533 195.854 277.198C195.838 277.124 195.885 277.052 195.958 277.036C196.032 277.02 196.103 277.066 196.119 277.139C196.193 277.476 196.269 277.831 196.346 278.204C196.361 278.277 196.314 278.349 196.241 278.364C196.231 278.366 196.222 278.367 196.213 278.367ZM138.754 278.343C138.751 278.343 138.749 278.343 138.745 278.343C138.67 278.338 138.614 278.273 138.619 278.199C138.643 277.828 138.672 277.465 138.705 277.112C138.712 277.037 138.781 276.984 138.853 276.99C138.928 276.997 138.982 277.063 138.975 277.138C138.942 277.488 138.913 277.849 138.889 278.216C138.885 278.288 138.825 278.343 138.754 278.343ZM140.166 275.801C140.094 275.801 140.034 275.744 140.03 275.672C140.027 275.597 140.085 275.533 140.16 275.53L141.244 275.48C141.321 275.477 141.382 275.535 141.386 275.609C141.389 275.684 141.331 275.748 141.257 275.751L140.172 275.801C140.17 275.801 140.168 275.801 140.166 275.801ZM143.781 275.638C143.709 275.638 143.648 275.581 143.645 275.508C143.642 275.433 143.7 275.37 143.775 275.366L144.86 275.319C144.862 275.319 144.864 275.319 144.866 275.319C144.938 275.319 144.998 275.375 145.001 275.448C145.004 275.523 144.947 275.587 144.872 275.59L143.787 275.637C143.785 275.638 143.783 275.638 143.781 275.638ZM147.396 275.481C147.324 275.481 147.264 275.424 147.261 275.351C147.258 275.276 147.316 275.213 147.391 275.21L148.476 275.164C148.548 275.161 148.614 275.219 148.617 275.294C148.62 275.369 148.562 275.432 148.487 275.435L147.402 275.481C147.4 275.481 147.398 275.481 147.396 275.481ZM151.012 275.332C150.939 275.332 150.879 275.275 150.876 275.202C150.873 275.127 150.932 275.064 151.006 275.061L152.091 275.017C152.168 275.013 152.229 275.072 152.232 275.147C152.235 275.222 152.177 275.285 152.102 275.288L151.017 275.332C151.015 275.332 151.013 275.332 151.012 275.332ZM154.627 275.19C154.554 275.19 154.494 275.132 154.491 275.059C154.489 274.985 154.547 274.921 154.622 274.918L155.707 274.877C155.784 274.867 155.844 274.933 155.847 275.008C155.85 275.083 155.792 275.146 155.717 275.148L154.632 275.189C154.63 275.19 154.629 275.19 154.627 275.19ZM158.243 275.055C158.17 275.055 158.11 274.998 158.107 274.924C158.105 274.85 158.163 274.787 158.238 274.784L159.322 274.745C159.407 274.744 159.46 274.801 159.463 274.876C159.465 274.951 159.407 275.014 159.332 275.017L158.248 275.055C158.246 275.055 158.244 275.055 158.243 275.055ZM161.858 274.929C161.786 274.929 161.725 274.872 161.723 274.798C161.72 274.723 161.779 274.661 161.854 274.658L162.939 274.622C163.006 274.62 163.076 274.679 163.079 274.753C163.081 274.828 163.022 274.891 162.947 274.894L161.863 274.929C161.861 274.929 161.86 274.929 161.858 274.929ZM195.402 274.837C195.341 274.837 195.287 274.797 195.27 274.736L195.262 274.704C194.993 274.681 194.703 274.66 194.394 274.64C194.319 274.635 194.262 274.57 194.267 274.495C194.272 274.421 194.33 274.364 194.412 274.369C194.737 274.39 195.04 274.412 195.321 274.437C195.415 274.445 195.492 274.506 195.513 274.589L195.533 274.667C195.552 274.74 195.509 274.814 195.436 274.833C195.425 274.836 195.413 274.837 195.402 274.837ZM165.474 274.813C165.401 274.813 165.341 274.755 165.338 274.681C165.336 274.607 165.395 274.544 165.469 274.541L166.554 274.509C166.621 274.509 166.691 274.565 166.694 274.64C166.696 274.715 166.637 274.778 166.562 274.78L165.478 274.813C165.476 274.813 165.475 274.813 165.474 274.813ZM169.089 274.707C169.016 274.707 168.955 274.649 168.953 274.575C168.951 274.5 169.01 274.438 169.085 274.436L170.17 274.407C170.248 274.41 170.308 274.464 170.309 274.539C170.311 274.614 170.252 274.676 170.177 274.678L169.093 274.707C169.091 274.707 169.09 274.707 169.089 274.707ZM172.705 274.614C172.631 274.614 172.571 274.556 172.569 274.482C172.568 274.407 172.627 274.345 172.702 274.343L173.786 274.318C173.875 274.322 173.924 274.376 173.925 274.45C173.927 274.525 173.868 274.587 173.793 274.589L172.708 274.614C172.707 274.614 172.706 274.614 172.705 274.614ZM176.321 274.536C176.247 274.536 176.187 274.477 176.186 274.403C176.184 274.328 176.244 274.266 176.319 274.265L177.403 274.245C177.405 274.245 177.405 274.245 177.406 274.245C177.48 274.245 177.54 274.304 177.542 274.378C177.543 274.453 177.483 274.515 177.408 274.516L176.324 274.536C176.323 274.536 176.322 274.536 176.321 274.536ZM191.873 274.522C191.872 274.522 191.87 274.522 191.869 274.522C191.522 274.511 191.161 274.501 190.785 274.492C190.71 274.49 190.651 274.428 190.653 274.353C190.655 274.278 190.716 274.221 190.792 274.221C191.168 274.23 191.53 274.24 191.878 274.251C191.952 274.253 192.011 274.316 192.009 274.391C192.006 274.465 191.946 274.522 191.873 274.522ZM179.938 274.478C179.864 274.478 179.803 274.418 179.802 274.344C179.801 274.269 179.861 274.207 179.936 274.206L181.021 274.193C181.021 274.193 181.022 274.193 181.023 274.193C181.097 274.193 181.158 274.252 181.158 274.327C181.159 274.402 181.099 274.463 181.024 274.464L179.94 274.478C179.939 274.478 179.939 274.478 179.938 274.478ZM188.257 274.45C188.257 274.45 188.256 274.45 188.255 274.45C187.903 274.446 187.542 274.444 187.171 274.442C187.096 274.441 187.036 274.38 187.036 274.305C187.036 274.23 187.097 274.17 187.172 274.17C187.172 274.17 187.172 274.17 187.172 274.17C187.544 274.172 187.905 274.175 188.258 274.178C188.333 274.179 188.393 274.24 188.393 274.315C188.392 274.39 188.331 274.45 188.257 274.45ZM183.555 274.443C183.48 274.443 183.42 274.383 183.419 274.308C183.419 274.233 183.479 274.172 183.554 274.171L184.64 274.167H184.64C184.715 274.167 184.775 274.227 184.776 274.302C184.776 274.377 184.715 274.438 184.64 274.438L183.556 274.443C183.555 274.443 183.555 274.443 183.555 274.443Z" fill="white"/>
<path d="M173.119 301.314L165.467 301.577C164.464 301.611 163.594 300.893 163.441 299.906L162.304 292.568C162.123 291.4 163.008 290.336 164.195 290.295L173.388 289.979C174.551 289.939 175.497 290.901 175.434 292.058L175.03 299.448C174.974 300.469 174.145 301.279 173.119 301.314Z" fill="url(#paint40_linear_45_5679)"/>
<path d="M172.131 299.991L166.307 300.191C165.544 300.217 164.881 299.671 164.765 298.919L163.9 293.335C163.762 292.445 164.435 291.635 165.339 291.604L172.336 291.364C173.221 291.334 173.941 292.066 173.893 292.946L173.586 298.571C173.543 299.348 172.912 299.964 172.131 299.991Z" fill="url(#paint41_linear_45_5679)"/>
<path d="M306.589 279.165L304.448 282.611L303.989 297.984H300.628L303.686 301.944L303.829 312.253C303.801 312.226 303.769 312.198 303.741 312.175L272.658 313.857L265.533 310.47L264.712 282.961L271.59 277.226L305.59 274.744L304.134 275.928V276.994H299.711L300.779 279.166L306.589 279.165Z" fill="#BDD0FB"/>
<path d="M272.666 306.514V313.854L250.231 303.991L250.193 301.312L246.982 296.572L249.274 295.045L249.123 280.667L246.981 277.455L248.815 274.092L248.687 272.028L271.942 277.153V288.773L266.032 286.631L266.289 288.163L271.766 290.916L272.526 304.064L265.793 301.16V302.536L272.666 306.514Z" fill="#91B3FA"/>
<path d="M248.639 272.028L276.67 269.161L305.672 274.743L271.847 277.367L248.639 272.028Z" fill="#7D97F4"/>
<g opacity="0.5">
<path d="M277.473 287.856L304.346 286.026L304.305 287.401L277.473 287.856Z" fill="#91B3FA"/>
<path d="M281.829 304.926C282.287 304.601 303.708 303.569 303.708 303.569L303.74 305.866L281.829 304.926Z" fill="#91B3FA"/>
</g>
<path d="M246.981 270.078L272.658 275.66C272.658 275.66 303.074 274.857 305.672 269.046C301.24 270.422 276.327 265.987 276.327 265.987L246.981 270.078Z" fill="#91B3FA"/>
<path d="M244.383 267.364C244.383 267.364 266.086 275.775 273.117 275.775C280.148 275.775 300.531 266.599 300.531 266.599C300.531 266.599 271.436 265.894 268.073 262.194C260.584 264.611 244.383 267.364 244.383 267.364Z" fill="#BDD0FB"/>
</g>
<defs>
<filter id="filter0_d_45_5679" x="0" y="0" width="350" height="350" filterUnits="userSpaceOnUse" color-interpolation-filters="sRGB">
<feFlood flood-opacity="0" result="BackgroundImageFix"/>
<feColorMatrix in="SourceAlpha" type="matrix" values="0 0 0 0 0 0 0 0 0 0 0 0 0 0 0 0 0 0 127 0" result="hardAlpha"/>
<feOffset dx="10" dy="10"/>
<feGaussianBlur stdDeviation="12.5"/>
<feComposite in2="hardAlpha" operator="out"/>
<feColorMatrix type="matrix" values="0 0 0 0 0 0 0 0 0 0 0 0 0 0 0 0 0 0 0.3 0"/>
<feBlend mode="normal" in2="BackgroundImageFix" result="effect1_dropShadow_45_5679"/>
<feBlend mode="normal" in="SourceGraphic" in2="effect1_dropShadow_45_5679" result="shape"/>
</filter>
<linearGradient id="paint0_linear_45_5679" x1="331.599" y1="353.542" x2="111.435" y2="116.036" gradientUnits="userSpaceOnUse">
<stop stop-color="#DAE3FE"/>
<stop offset="1" stop-color="#E9EFFD"/>
</linearGradient>
<linearGradient id="paint1_linear_45_5679" x1="93.0305" y1="71.4468" x2="428.735" y2="453.883" gradientUnits="userSpaceOnUse">
<stop stop-color="#09005D"/>
<stop offset="1" stop-color="#1A0F91"/>
</linearGradient>
<linearGradient id="paint2_linear_45_5679" x1="163.264" y1="294.076" x2="250.566" y2="200.77" gradientUnits="userSpaceOnUse">
<stop stop-color="#FF928E"/>
<stop offset="1" stop-color="#FE7062"/>
</linearGradient>
<linearGradient id="paint3_linear_45_5679" x1="373.028" y1="-147.625" x2="319.815" y2="-78.1615" gradientUnits="userSpaceOnUse">
<stop stop-color="#FF928E"/>
<stop offset="1" stop-color="#FE7062"/>
</linearGradient>
<linearGradient id="paint4_linear_45_5679" x1="209.61" y1="107.212" x2="194.404" y2="142.31" gradientUnits="userSpaceOnUse">
<stop stop-color="#FF928E"/>
<stop offset="1" stop-color="#FE7062"/>
</linearGradient>
<linearGradient id="paint5_linear_45_5679" x1="248.811" y1="531.973" x2="267.151" y2="558.503" gradientUnits="userSpaceOnUse">
<stop stop-color="#09005D"/>
<stop offset="1" stop-color="#1A0F91"/>
</linearGradient>
<linearGradient id="paint6_linear_45_5679" x1="118.081" y1="171.677" x2="97.8081" y2="210.512" gradientUnits="userSpaceOnUse">
<stop stop-color="#09005D"/>
<stop offset="1" stop-color="#1A0F91"/>
</linearGradient>
<linearGradient id="paint7_linear_45_5679" x1="242.116" y1="543.21" x2="260.808" y2="570.248" gradientUnits="userSpaceOnUse">
<stop stop-color="#09005D"/>
<stop offset="1" stop-color="#1A0F91"/>
</linearGradient>
<linearGradient id="paint8_linear_45_5679" x1="51.7189" y1="237.143" x2="63.3896" y2="237.143" gradientUnits="userSpaceOnUse">
<stop stop-color="#4F52FF"/>
<stop offset="1" stop-color="#4042E2"/>
</linearGradient>
<linearGradient id="paint9_linear_45_5679" x1="21.7878" y1="212.334" x2="75.1584" y2="212.334" gradientUnits="userSpaceOnUse">
<stop stop-color="#4F52FF"/>
<stop offset="1" stop-color="#4042E2"/>
</linearGradient>
<linearGradient id="paint10_linear_45_5679" x1="42.8594" y1="247.207" x2="100.929" y2="247.207" gradientUnits="userSpaceOnUse">
<stop stop-color="#4F52FF"/>
<stop offset="1" stop-color="#4042E2"/>
</linearGradient>
<linearGradient id="paint11_linear_45_5679" x1="37.3695" y1="169.984" x2="17.2676" y2="205.635" gradientUnits="userSpaceOnUse">
<stop stop-color="#FEBBBA"/>
<stop offset="1" stop-color="#FF928E"/>
</linearGradient>
<linearGradient id="paint12_linear_45_5679" x1="-178.184" y1="-654.026" x2="-162.435" y2="-589.433" gradientUnits="userSpaceOnUse">
<stop stop-color="#FF928E"/>
<stop offset="1" stop-color="#FE7062"/>
</linearGradient>
<linearGradient id="paint13_linear_45_5679" x1="29.095" y1="166.589" x2="79.0002" y2="174.528" gradientUnits="userSpaceOnUse">
<stop stop-color="#FEBBBA"/>
<stop offset="1" stop-color="#FF928E"/>
</linearGradient>
<linearGradient id="paint14_linear_45_5679" x1="-899.228" y1="-1060.1" x2="-858.419" y2="-1007.62" gradientUnits="userSpaceOnUse">
<stop stop-color="#FF928E"/>
<stop offset="1" stop-color="#FE7062"/>
</linearGradient>
<linearGradient id="paint15_linear_45_5679" x1="142.964" y1="216.837" x2="152.445" y2="228.85" gradientUnits="userSpaceOnUse">
<stop stop-color="#09005D"/>
<stop offset="1" stop-color="#1A0F91"/>
</linearGradient>
<linearGradient id="paint16_linear_45_5679" x1="142.364" y1="231.091" x2="145.262" y2="224.817" gradientUnits="userSpaceOnUse">
<stop stop-color="#FEBBBA"/>
<stop offset="1" stop-color="#FF928E"/>
</linearGradient>
<linearGradient id="paint17_linear_45_5679" x1="-1286.69" y1="-1162.71" x2="-1251.36" y2="-1127.88" gradientUnits="userSpaceOnUse">
<stop stop-color="#09005D"/>
<stop offset="1" stop-color="#1A0F91"/>
</linearGradient>
<linearGradient id="paint18_linear_45_5679" x1="153.795" y1="226.275" x2="172.273" y2="261.287" gradientUnits="userSpaceOnUse">
<stop stop-color="#09005D"/>
<stop offset="1" stop-color="#1A0F91"/>
</linearGradient>
<linearGradient id="paint19_linear_45_5679" x1="154.933" y1="240.058" x2="162.726" y2="223.189" gradientUnits="userSpaceOnUse">
<stop stop-color="#53D8FF"/>
<stop offset="1" stop-color="#3840F7"/>
</linearGradient>
<linearGradient id="paint20_linear_45_5679" x1="146.058" y1="238.301" x2="148.778" y2="232.414" gradientUnits="userSpaceOnUse">
<stop stop-color="#FEBBBA"/>
<stop offset="1" stop-color="#FF928E"/>
</linearGradient>
<linearGradient id="paint21_linear_45_5679" x1="-1297" y1="-1152.25" x2="-1261.67" y2="-1117.43" gradientUnits="userSpaceOnUse">
<stop stop-color="#09005D"/>
<stop offset="1" stop-color="#1A0F91"/>
</linearGradient>
<linearGradient id="paint22_linear_45_5679" x1="-150.285" y1="-660.825" x2="-134.535" y2="-596.233" gradientUnits="userSpaceOnUse">
<stop stop-color="#FF928E"/>
<stop offset="1" stop-color="#FE7062"/>
</linearGradient>
<linearGradient id="paint23_linear_45_5679" x1="44.2522" y1="199.023" x2="50.5476" y2="185.396" gradientUnits="userSpaceOnUse">
<stop stop-color="#FEBBBA"/>
<stop offset="1" stop-color="#FF928E"/>
</linearGradient>
<linearGradient id="paint24_linear_45_5679" x1="39.418" y1="174.419" x2="57.9427" y2="204.485" gradientUnits="userSpaceOnUse">
<stop stop-color="#FEBBBA"/>
<stop offset="1" stop-color="#FF928E"/>
</linearGradient>
<linearGradient id="paint25_linear_45_5679" x1="32.9198" y1="186.522" x2="41.0628" y2="165.637" gradientUnits="userSpaceOnUse">
<stop stop-color="#09005D"/>
<stop offset="1" stop-color="#1A0F91"/>
</linearGradient>
<linearGradient id="paint26_linear_45_5679" x1="47.7242" y1="206.411" x2="38.7963" y2="186.782" gradientUnits="userSpaceOnUse">
<stop stop-color="#FEBBBA"/>
<stop offset="1" stop-color="#FF928E"/>
</linearGradient>
<linearGradient id="paint27_linear_45_5679" x1="88.0827" y1="300.348" x2="87.0958" y2="294.143" gradientUnits="userSpaceOnUse">
<stop stop-color="#4F52FF"/>
<stop offset="1" stop-color="#4042E2"/>
</linearGradient>
<linearGradient id="paint28_linear_45_5679" x1="-976.565" y1="-1243.15" x2="-958.225" y2="-1216.62" gradientUnits="userSpaceOnUse">
<stop stop-color="#09005D"/>
<stop offset="1" stop-color="#1A0F91"/>
</linearGradient>
<linearGradient id="paint29_linear_45_5679" x1="57.6503" y1="300.348" x2="56.6634" y2="294.143" gradientUnits="userSpaceOnUse">
<stop stop-color="#4F52FF"/>
<stop offset="1" stop-color="#4042E2"/>
</linearGradient>
<linearGradient id="paint30_linear_45_5679" x1="-997.164" y1="-1228.92" x2="-978.824" y2="-1202.39" gradientUnits="userSpaceOnUse">
<stop stop-color="#09005D"/>
<stop offset="1" stop-color="#1A0F91"/>
</linearGradient>
<linearGradient id="paint31_linear_45_5679" x1="117.288" y1="224.091" x2="146.271" y2="233.592" gradientUnits="userSpaceOnUse">
<stop stop-color="#09005D"/>
<stop offset="1" stop-color="#1A0F91"/>
</linearGradient>
<linearGradient id="paint32_linear_45_5679" x1="157.098" y1="205.079" x2="177.98" y2="227.139" gradientUnits="userSpaceOnUse">
<stop stop-color="#09005D"/>
<stop offset="1" stop-color="#1A0F91"/>
</linearGradient>
<linearGradient id="paint33_linear_45_5679" x1="172.463" y1="319.593" x2="169.113" y2="300.232" gradientUnits="userSpaceOnUse">
<stop stop-color="#4F52FF"/>
<stop offset="1" stop-color="#4042E2"/>
</linearGradient>
<linearGradient id="paint34_linear_45_5679" x1="117.534" y1="542.91" x2="120.011" y2="525.352" gradientUnits="userSpaceOnUse">
<stop stop-color="#4F52FF"/>
<stop offset="1" stop-color="#4042E2"/>
</linearGradient>
<linearGradient id="paint35_linear_45_5679" x1="116.758" y1="542.802" x2="119.235" y2="525.244" gradientUnits="userSpaceOnUse">
<stop stop-color="#4F52FF"/>
<stop offset="1" stop-color="#4042E2"/>
</linearGradient>
<linearGradient id="paint36_linear_45_5679" x1="140.854" y1="546.2" x2="143.331" y2="528.642" gradientUnits="userSpaceOnUse">
<stop stop-color="#4F52FF"/>
<stop offset="1" stop-color="#4042E2"/>
</linearGradient>
<linearGradient id="paint37_linear_45_5679" x1="140.034" y1="546.085" x2="142.511" y2="528.527" gradientUnits="userSpaceOnUse">
<stop stop-color="#4F52FF"/>
<stop offset="1" stop-color="#4042E2"/>
</linearGradient>
<linearGradient id="paint38_linear_45_5679" x1="127.622" y1="544.335" x2="130.099" y2="526.776" gradientUnits="userSpaceOnUse">
<stop stop-color="#4F52FF"/>
<stop offset="1" stop-color="#4042E2"/>
</linearGradient>
<linearGradient id="paint39_linear_45_5679" x1="168.115" y1="283.714" x2="177.71" y2="250.603" gradientUnits="userSpaceOnUse">
<stop stop-color="#4F52FF"/>
<stop offset="1" stop-color="#4042E2"/>
</linearGradient>
<linearGradient id="paint40_linear_45_5679" x1="170.624" y1="274.292" x2="168.114" y2="301.706" gradientUnits="userSpaceOnUse">
<stop stop-color="#09005D"/>
<stop offset="1" stop-color="#1A0F91"/>
</linearGradient>
<linearGradient id="paint41_linear_45_5679" x1="170.102" y1="271.957" x2="169.468" y2="282.995" gradientUnits="userSpaceOnUse">
<stop stop-color="#4F52FF"/>
<stop offset="1" stop-color="#4042E2"/>
</linearGradient>
</defs>
</svg>
