<svg width="350" height="350" viewBox="0 0 350 350" fill="none" xmlns="http://www.w3.org/2000/svg">
<g filter="url(#filter0_d_45_5348)">
<path d="M299.995 218.86C272.066 284.572 197.67 321.385 133.154 311.455C122.656 309.839 93.8752 305.026 68.3936 282.319C19.3402 238.605 8.84968 152.048 48.4196 91.0488C77.2196 46.652 128.846 21.485 177.902 22.744C188.469 23.0151 228.964 24.6864 264.553 54.0101C269.78 58.3172 281.31 68.552 291.7 84.7888C316.099 122.916 318.196 176.035 299.995 218.86Z" fill="url(#paint0_linear_45_5348)"/>
<path d="M59.4715 17.1051C58.9968 15.6034 60.754 14.3852 62.0104 15.3359C74.7686 24.9907 106.108 54.6311 105.218 112.338C104.101 184.74 121.774 209.239 142.012 223.179C142.012 223.179 115.745 218.402 96.9064 193.638C50.6523 132.837 67.9121 43.8059 59.4715 17.1051Z" fill="#BDD0FB"/>
<path d="M70.6732 38.493C72.9705 46.296 75.1124 54.1402 76.9644 62.0514C78.8575 69.9516 80.5102 77.9055 81.9124 85.8994C83.2837 93.898 84.5047 101.921 85.3828 109.984C86.2971 118.043 86.8639 126.132 87.4047 134.255C87.9906 142.371 88.5346 150.55 89.9181 158.698C91.2914 166.83 93.6582 174.93 97.4359 182.357C98.3797 184.208 99.3608 186.048 100.441 187.813C101.488 189.598 102.615 191.338 103.773 193.057C106.106 196.483 108.671 199.761 111.467 202.834C117.077 208.966 123.616 214.239 130.66 218.542C131.402 218.995 132.37 218.762 132.823 218.021C133.268 217.294 133.051 216.347 132.341 215.885L132.336 215.881C130.652 214.786 128.983 213.673 127.37 212.49C126.553 211.911 125.764 211.297 124.964 210.698C124.188 210.07 123.386 209.471 122.63 208.819C119.562 206.265 116.676 203.497 114.01 200.531C108.655 194.63 104.154 187.899 100.533 180.81C98.7614 177.244 97.2562 173.554 96.0406 169.761C94.8276 165.967 93.9045 162.073 93.2031 158.124C91.799 150.222 91.1937 142.131 90.5494 134.02C89.8945 125.908 89.1808 117.761 88.1325 109.656C87.6194 105.602 87.0335 101.559 86.3754 97.5276C86.058 95.5101 85.7014 93.4992 85.3488 91.488C84.9767 89.4802 84.5935 87.4746 84.1941 85.4726C82.5815 77.4672 80.7251 69.5149 78.6201 61.6322C76.4772 53.7597 74.1259 45.9466 71.4775 38.2372C71.4017 38.0168 71.1617 37.8996 70.9412 37.9753C70.727 38.0486 70.6104 38.278 70.6732 38.493Z" fill="white"/>
<path d="M97.532 231.434C96.9793 234.441 93.5339 235.906 90.961 234.253C76.7647 225.133 38.9601 195.721 32.5027 137.861C27.0498 89.0014 19.4463 63.0254 15.1769 51.4723C14.2742 49.0293 17.0172 46.8546 19.1955 48.2843C43.2285 64.0586 117.559 122.508 97.532 231.434Z" fill="#91B3FA"/>
<path d="M93.4513 232.141C93.3958 232.193 93.3349 232.24 93.268 232.282C92.7089 232.631 91.972 232.461 91.6225 231.903C91.2261 231.269 51.8651 167.782 41.2119 100.188C41.1096 99.5377 41.5544 98.9269 42.2059 98.8236C42.8576 98.7213 43.4686 99.1658 43.5716 99.8169C54.147 166.919 93.2538 230.008 93.6474 230.637C93.9556 231.129 93.8605 231.759 93.4513 232.141Z" fill="white"/>
<path d="M39.2344 163.937C39.2344 229.554 94.4808 282.748 162.631 282.748C230.781 282.748 289.079 227.23 289.079 161.612C289.079 95.9949 230.781 45.1256 162.631 45.1256C94.4808 45.1256 39.2344 98.3193 39.2344 163.937Z" fill="url(#paint1_linear_45_5348)"/>
<path d="M279.391 135.048C279.465 135.048 279.538 135.04 279.611 135.021C280.066 134.904 280.337 134.455 280.216 134.016C278.888 129.215 277.192 124.453 275.174 119.862C274.99 119.445 274.488 119.255 274.057 119.426C273.624 119.604 273.422 120.085 273.605 120.503C275.592 125.022 277.262 129.71 278.568 134.439C278.67 134.806 279.015 135.048 279.391 135.048Z" fill="#91B3FA"/>
<path d="M260.535 97.9187C260.713 97.9187 260.893 97.8642 261.047 97.7537C261.422 97.4812 261.497 96.9653 261.214 96.6048C238.352 67.4139 201.526 49.9879 162.704 49.9879C146.124 49.9879 130.088 53.2248 115.041 59.6055C114.611 59.7883 114.416 60.2739 114.605 60.6872C114.794 61.1022 115.298 61.2897 115.729 61.1086C130.557 54.8178 146.362 51.6288 162.704 51.6288C200.994 51.6288 237.311 68.8112 259.853 97.5919C260.021 97.8066 260.276 97.9187 260.535 97.9187Z" fill="#91B3FA"/>
<path d="M56.0229 163.937C56.0229 220.736 103.845 266.781 162.836 266.781C221.827 266.781 272.291 218.724 272.291 161.925C272.291 105.126 221.827 61.0925 162.836 61.0925C103.845 61.0925 56.0229 107.138 56.0229 163.937Z" fill="url(#paint2_linear_45_5348)"/>
<path opacity="0.78" d="M244.994 158.603C245.259 162.968 249.148 166.301 253.682 166.047C258.216 165.793 261.678 162.048 261.414 157.682C261.15 153.317 257.26 149.984 252.726 150.238C248.192 150.492 244.731 154.237 244.994 158.603Z" fill="white"/>
<path d="M67.3315 168.559C67.5952 172.925 71.485 176.258 76.0189 176.004C80.553 175.75 84.0147 172.005 83.7507 167.639C83.4868 163.273 79.5972 159.94 75.0634 160.195C70.5292 160.449 67.0675 164.193 67.3315 168.559Z" fill="#BDD0FB"/>
<path d="M178.883 239.613C174.415 240.399 171.455 244.523 172.271 248.825C173.087 253.126 177.371 255.977 181.838 255.191C186.306 254.405 189.266 250.281 188.45 245.979C187.634 241.677 183.351 238.827 178.883 239.613Z" fill="#BDD0FB"/>
<path d="M146.907 71.0508C142.439 71.8364 139.479 75.9606 140.295 80.2625C141.111 84.5644 145.394 87.4145 149.862 86.6287C154.33 85.8432 157.29 81.7188 156.474 77.4171C155.658 73.1153 151.375 70.2651 146.907 71.0508Z" fill="#BDD0FB"/>
<path d="M120.419 244.139C119.583 246.169 119.792 248.07 120.885 248.384C121.979 248.699 123.542 247.308 124.378 245.279C125.214 243.249 125.005 241.347 123.912 241.033C122.818 240.718 121.255 242.109 120.419 244.139Z" fill="#BDD0FB"/>
<path opacity="0.78" d="M191.893 84.2574C191.057 86.2875 191.266 88.1884 192.359 88.503C193.453 88.8179 195.016 87.4273 195.852 85.3975C196.688 83.3674 196.479 81.4662 195.386 81.1515C194.292 80.8369 192.728 82.2274 191.893 84.2574Z" fill="white"/>
<path opacity="0.78" d="M83.0999 213.745C81.291 215.063 80.4443 216.792 81.209 217.607C81.9737 218.423 84.0599 218.016 85.8691 216.699C87.678 215.382 88.5244 213.653 87.7598 212.837C86.9952 212.022 84.9088 212.428 83.0999 213.745Z" fill="white"/>
<path opacity="0.78" d="M230.402 112.836C228.594 114.154 227.747 115.883 228.511 116.698C229.276 117.514 231.362 117.107 233.171 115.79C234.98 114.473 235.827 112.744 235.062 111.928C234.298 111.113 232.211 111.519 230.402 112.836Z" fill="white"/>
<path opacity="0.78" d="M78.413 123.218C76.3653 122.28 74.3815 122.353 73.9823 123.382C73.5826 124.412 74.9188 126.007 76.9665 126.946C79.0142 127.884 80.9982 127.811 81.3974 126.782C81.7968 125.753 80.4606 124.157 78.413 123.218Z" fill="white"/>
<path opacity="0.78" d="M239.305 202.59C237.257 201.651 235.273 201.725 234.874 202.754C234.474 203.783 235.81 205.379 237.858 206.317C239.905 207.256 241.89 207.182 242.289 206.153C242.688 205.124 241.352 203.529 239.305 202.59Z" fill="white"/>
<path d="M112.408 89.4025C111.164 87.5763 109.429 86.6473 108.532 87.3273C107.636 88.0074 107.918 90.0388 109.161 91.8649C110.405 93.6909 112.141 94.6199 113.036 93.9401C113.933 93.2601 113.651 91.2284 112.408 89.4025Z" fill="#BDD0FB"/>
<path d="M207.11 237.671C205.866 235.845 204.131 234.916 203.235 235.596C202.339 236.276 202.62 238.307 203.864 240.133C205.108 241.959 206.843 242.888 207.739 242.208C208.636 241.528 208.354 239.497 207.11 237.671Z" fill="#BDD0FB"/>
<path d="M158.735 161.959L249.548 229.094C313.644 140.928 247.657 66.7222 164.241 58.6086L158.735 161.959Z" fill="url(#paint3_linear_45_5348)"/>
<path d="M164.338 161.633L224.965 202.788C226.14 203.585 227.758 202.894 227.919 201.527L228.877 193.391C229.063 191.809 231.121 191.224 232.193 192.45L273.425 239.567C274.687 241.009 273.157 243.106 271.332 242.436L212.368 220.819C210.958 220.302 210.691 218.485 211.902 217.638L220.039 211.942C221.045 211.238 221.067 209.796 220.085 209.041L162.095 164.541C161.287 163.922 161.133 162.798 161.748 162.012C162.358 161.234 163.502 161.066 164.338 161.633Z" fill="url(#paint4_linear_45_5348)"/>
<path opacity="0.72" d="M266.108 238.281C266.715 238.371 267.314 238.127 267.674 237.619C268.104 237.011 268.046 236.233 267.531 235.679L258.428 225.904C258.113 225.565 257.573 225.534 257.226 225.835C256.877 226.136 256.851 226.654 257.167 226.995L266.27 236.771C252.951 231.68 221.708 220.082 221.049 219.916C220.605 219.798 220.131 220.063 220.016 220.502C219.904 220.936 220.172 221.378 220.617 221.5C221.561 221.794 245.507 230.667 265.756 238.189C265.873 238.232 265.99 238.263 266.108 238.281Z" fill="white"/>
<path d="M159.271 157.626L159.402 95.4341C159.381 94.0572 157.84 93.2012 156.591 93.8717L149.16 97.8597C147.714 98.6355 146.004 97.3757 146.404 95.8294L161.773 36.3677C162.244 34.5489 164.918 34.5179 165.432 36.326L182.068 94.7373C182.466 96.135 181.091 97.3987 179.659 96.9502L170.04 93.9388C168.851 93.5664 167.621 94.3875 167.566 95.5902L163.051 157.678C163.006 158.666 162.15 159.439 161.122 159.418C160.105 159.398 159.287 158.605 159.271 157.626Z" fill="url(#paint5_linear_45_5348)"/>
<path opacity="0.72" d="M176.963 89.035C177.067 89.035 177.172 89.0174 177.274 88.979C177.707 88.8155 177.923 88.3492 177.763 87.9309C177.453 87.0305 170.778 63.2526 165.146 43.1329C164.947 42.4215 164.318 41.9536 163.532 41.9713C162.765 41.9904 162.141 42.4887 161.978 43.2113L159.114 55.9744C159.015 56.4167 159.307 56.8542 159.768 56.9487C160.223 57.0465 160.679 56.7644 160.78 56.3205L163.644 43.5575C167.227 56.8735 175.921 87.9037 176.17 88.5142C176.302 88.838 176.623 89.035 176.963 89.035Z" fill="white"/>
<path d="M163.388 169.417C168.238 169.417 172.17 165.63 172.17 160.96C172.17 156.289 168.238 152.503 163.388 152.503C158.537 152.503 154.605 156.289 154.605 160.96C154.605 165.63 158.537 169.417 163.388 169.417Z" fill="url(#paint6_linear_45_5348)"/>
<path d="M300.204 89.2198C298.905 76.1341 295.657 43.6325 294.947 38.882C294.056 32.9113 286.734 34.229 286.734 34.229L285.166 94.6501H295.375C296.747 94.6501 298.055 94.059 298.975 93.0228C299.894 91.9866 300.342 90.609 300.204 89.2198Z" fill="url(#paint7_linear_45_5348)"/>
<path d="M217.61 96.1731C214.422 96.1055 211.892 93.4683 211.96 90.2826L213.001 41.2309C213.058 38.5248 215.228 36.3383 217.936 36.2581L289.182 34.1459C291.3 34.0831 293.05 35.7857 293.044 37.9038L292.873 94.1449C292.867 96.1351 291.228 97.7334 289.237 97.6911L217.61 96.1731Z" fill="url(#paint8_linear_45_5348)"/>
<path d="M213.018 92.0555C211.998 92.0398 211.227 91.1268 211.386 90.1197C212.437 83.4405 215.738 60.4659 214.679 41.3904C214.631 40.5206 215.305 39.7809 216.177 39.753L287.743 37.4717C288.725 37.4404 289.547 38.206 289.584 39.1865C289.889 47.2061 291.022 80.2316 289.539 91.9713C289.449 92.6859 288.834 93.2166 288.113 93.2056L213.018 92.0555Z" fill="#91B3FA"/>
<path opacity="0.6" d="M214.826 91.3043C213.844 91.2894 213.103 90.4107 213.256 89.4415C214.267 83.0138 217.443 60.9043 216.425 42.5471C216.378 41.71 217.027 40.9981 217.866 40.9713L286.738 38.776C287.682 38.746 288.474 39.4828 288.509 40.4262C288.802 48.144 289.893 79.9259 288.466 91.2234C288.379 91.911 287.787 92.4218 287.094 92.4112L214.826 91.3043Z" fill="white"/>
<path opacity="0.72" d="M257.157 52.6343L257.051 57.5907C257.035 58.3472 257.642 58.9704 258.399 58.9746L263.487 59.0033C264.228 59.0075 264.835 58.417 264.851 57.6769L264.961 52.4661C264.978 51.6828 264.328 51.0488 263.545 51.0835L258.452 51.3091C257.739 51.3408 257.172 51.9204 257.157 52.6343Z" fill="white"/>
<path opacity="0.72" d="M239.369 58.9328L244.457 58.9616C245.197 58.9657 245.804 58.3752 245.82 57.635L245.914 53.2031C245.931 52.4245 245.289 51.7921 244.51 51.8201L239.418 52.0029C238.699 52.0286 238.126 52.6102 238.11 53.3285L238.021 57.5489C238.005 58.3054 238.612 58.9285 239.369 58.9328Z" fill="white"/>
<path opacity="0.72" d="M243.826 81.0101L238.987 80.9633C238.176 80.9554 237.51 81.6007 237.493 82.4107L237.397 86.9394C237.38 87.7439 238.009 88.4143 238.814 88.4483L243.65 88.6529C244.479 88.688 245.175 88.0355 245.192 87.2066L245.292 82.5203C245.309 81.6971 244.65 81.0182 243.826 81.0101Z" fill="white"/>
<path opacity="0.72" d="M235.684 86.8304L235.778 82.4025C235.796 81.5934 235.148 80.9261 234.338 80.9183L229.448 80.8709C228.651 80.8632 227.997 81.4976 227.98 82.2935L227.889 86.5621C227.872 87.3527 228.491 88.0117 229.282 88.0452L234.169 88.2519C234.983 88.2863 235.667 87.645 235.684 86.8304Z" fill="white"/>
<path opacity="0.72" d="M236.109 66.8403L236.186 63.2055C236.205 62.3276 235.497 61.6065 234.618 61.6082L229.948 61.6165C229.098 61.6181 228.404 62.2979 228.386 63.1476L228.313 66.6213C228.294 67.478 228.969 68.1898 229.826 68.2179L234.493 68.3704C235.364 68.3989 236.091 67.711 236.109 66.8403Z" fill="white"/>
<path opacity="0.72" d="M235.885 77.4032L236.003 71.8436C236.02 71.0476 235.392 70.3861 234.596 70.36L229.82 70.2039C228.949 70.1753 228.222 70.8632 228.204 71.7341L228.085 77.341C228.068 78.1556 228.724 78.8253 229.539 78.8254L234.43 78.8259C235.222 78.826 235.868 78.1938 235.885 77.4032Z" fill="white"/>
<path opacity="0.72" d="M248.883 58.9864L253.971 59.0151C254.712 59.0193 255.319 58.4288 255.334 57.6887L255.437 52.8613C255.454 52.0827 254.811 51.4503 254.032 51.4783L248.94 51.6611C248.222 51.6869 247.648 52.2685 247.633 52.9868L247.535 57.6026C247.519 58.3591 248.126 58.9822 248.883 58.9864Z" fill="white"/>
<path opacity="0.72" d="M245.401 77.3793L245.511 72.1795C245.529 71.3696 244.891 70.6965 244.08 70.67L239.243 70.5118C238.419 70.4849 237.733 71.1353 237.715 71.9585L237.601 77.3159C237.584 78.1447 238.251 78.8261 239.081 78.8262L243.921 78.8267C244.726 78.8268 245.384 78.1837 245.401 77.3793Z" fill="white"/>
<path opacity="0.72" d="M254.103 61.573L248.548 61.5831C247.938 61.5842 247.44 62.0716 247.427 62.681L247.321 67.6808C247.308 68.2951 247.792 68.8055 248.407 68.8256L253.959 69.0071C254.583 69.0275 255.104 68.5343 255.118 67.9099L255.228 62.7184C255.241 62.0889 254.734 61.5718 254.103 61.573Z" fill="white"/>
<path opacity="0.72" d="M256.938 62.9452L256.837 67.707C256.82 68.4791 257.429 69.1207 258.201 69.1459L263.176 69.3087C263.961 69.3343 264.616 68.7145 264.633 67.9297L264.738 62.9961C264.755 62.205 264.117 61.555 263.325 61.5564L258.346 61.5654C257.579 61.5667 256.954 62.1795 256.938 62.9452Z" fill="white"/>
<path opacity="0.72" d="M238.898 68.5146L244.45 68.6962C245.074 68.7166 245.595 68.2233 245.608 67.5989L245.712 62.7356C245.725 62.1062 245.217 61.589 244.587 61.5902L239.031 61.6002C238.422 61.6014 237.924 62.0888 237.911 62.6982L237.812 67.3699C237.799 67.984 238.283 68.4945 238.898 68.5146Z" fill="white"/>
<path opacity="0.72" d="M253.589 70.9812L248.752 70.8229C247.928 70.7961 247.241 71.4464 247.224 72.2697L247.117 77.3171C247.099 78.1459 247.767 78.8273 248.596 78.8274L253.437 78.828C254.242 78.8281 254.9 78.1849 254.917 77.3804L255.02 72.4906C255.038 71.6807 254.399 71.0077 253.589 70.9812Z" fill="white"/>
<path opacity="0.72" d="M263.266 71.2976L258.09 71.1283C257.36 71.1044 256.752 71.6804 256.737 72.4094L256.629 77.491C256.613 78.2249 257.204 78.8283 257.939 78.8284L263.118 78.829C263.831 78.8291 264.414 78.2594 264.429 77.5472L264.533 72.6343C264.548 71.917 263.983 71.321 263.266 71.2976Z" fill="white"/>
<path opacity="0.72" d="M230.566 58.8173L234.427 58.8391C235.454 58.8448 236.296 58.0262 236.318 57.0001L236.385 53.8167C236.406 52.8549 235.612 52.0737 234.65 52.1083L230.353 52.2624C229.378 52.2974 228.6 53.0867 228.579 54.0615L228.522 56.7199C228.498 57.8665 229.418 58.8108 230.566 58.8173Z" fill="white"/>
<path opacity="0.72" d="M226.262 82.4224C226.281 81.5517 225.584 80.8335 224.713 80.8251L223.03 80.8087C221.752 80.7963 220.707 81.6406 220.684 82.704L220.619 85.7813C220.596 86.836 221.589 87.7198 222.856 87.7734L224.661 87.8497C225.476 87.8843 226.16 87.243 226.177 86.4283L226.262 82.4224Z" fill="white"/>
<path opacity="0.72" d="M280.351 81.3642L277.043 81.3321C276.232 81.3242 275.565 81.9702 275.548 82.7808L275.426 88.5467C275.409 89.3518 276.039 90.0229 276.844 90.0569L280.137 90.1961C281.45 90.2517 282.552 89.3963 282.575 88.3032L282.68 83.3585C282.703 82.2743 281.655 81.3769 280.351 81.3642Z" fill="white"/>
<path opacity="0.72" d="M223.164 78.8245L224.806 78.8247C225.658 78.8247 226.353 78.1445 226.371 77.2937L226.491 71.642C226.509 70.7853 225.834 70.0735 224.977 70.0454L223.325 69.9913C222.021 69.9487 220.937 70.8009 220.914 71.8853L220.809 76.8299C220.785 77.9231 221.85 78.8244 223.164 78.8245Z" fill="white"/>
<path opacity="0.72" d="M223.302 68.0046L225.369 68.0721C226.028 68.0936 226.578 67.5734 226.592 66.9148L226.678 62.8326C226.692 62.1688 226.157 61.6233 225.493 61.6245L223.405 61.6283C222.139 61.6305 221.114 62.4707 221.091 63.5237L221.038 66.0113C221.016 67.0749 222.025 67.9627 223.302 68.0046Z" fill="white"/>
<path opacity="0.72" d="M280.88 50.4492L277.562 50.5683C276.815 50.5951 276.218 51.2001 276.203 51.9473L276.082 57.6427C276.065 58.4296 276.696 59.0779 277.484 59.0823L280.9 59.1015C282.174 59.1088 283.212 58.2659 283.235 57.2061L283.336 52.442C283.36 51.3157 282.232 50.4007 280.88 50.4492Z" fill="white"/>
<path opacity="0.72" d="M253.34 81.1025L248.501 81.0556C247.69 81.0478 247.024 81.6931 247.007 82.5031L246.904 87.3416C246.887 88.1461 247.516 88.8165 248.321 88.8505L253.157 89.055C253.986 89.0901 254.682 88.4376 254.699 87.6089L254.806 82.6126C254.823 81.7894 254.164 81.1105 253.34 81.1025Z" fill="white"/>
<path opacity="0.72" d="M280.74 61.5249L277.378 61.5309C276.611 61.5323 275.986 62.1451 275.97 62.9108L275.855 68.329C275.838 69.1011 276.447 69.7427 277.219 69.7679L280.595 69.8784C281.898 69.921 282.983 69.0687 283.006 67.9843L283.101 63.5195C283.124 62.4246 282.057 61.5225 280.74 61.5249Z" fill="white"/>
<path opacity="0.72" d="M280.618 71.865L277.108 71.7502C276.379 71.7264 275.771 72.3023 275.755 73.0314L275.66 77.4931C275.645 78.227 276.236 78.8304 276.971 78.8305L280.497 78.8309C281.765 78.831 282.794 77.9902 282.816 76.9355L282.882 73.8582C282.904 72.7947 281.896 71.9069 280.618 71.865Z" fill="white"/>
<path opacity="0.72" d="M266.246 72.7206L266.145 77.4922C266.129 78.2261 266.72 78.8295 267.455 78.8296L272.634 78.8302C273.347 78.8303 273.929 78.2607 273.945 77.5483L274.042 72.9453C274.058 72.2281 273.492 71.6321 272.775 71.6088L267.599 71.4394C266.87 71.4156 266.261 71.9915 266.246 72.7206Z" fill="white"/>
<path opacity="0.72" d="M272.367 81.2868L267.529 81.2399C266.718 81.2321 266.051 81.878 266.034 82.6886L265.918 88.1446C265.901 88.9498 266.531 89.6207 267.337 89.6548L272.17 89.8592C273 89.8944 273.696 89.2413 273.714 88.4119L273.833 82.7982C273.851 81.9744 273.191 81.2948 272.367 81.2868Z" fill="white"/>
<path opacity="0.72" d="M223.574 58.7778L225.598 58.7892C226.245 58.7929 226.775 58.2773 226.789 57.6313L226.874 53.6387C226.888 52.9589 226.327 52.4069 225.647 52.4313L223.503 52.5082C222.276 52.5522 221.307 53.3798 221.285 54.4019L221.235 56.7834C221.211 57.8713 222.266 58.7704 223.574 58.7778Z" fill="white"/>
<path opacity="0.72" d="M262.853 81.1947L258.097 81.1485C257.24 81.1402 256.537 81.8221 256.519 82.6776L256.411 87.7424C256.394 88.5475 257.024 89.2185 257.829 89.2526L262.663 89.4571C263.493 89.4922 264.189 88.8392 264.206 88.0097L264.319 82.706C264.337 81.8822 263.677 81.2026 262.853 81.1947Z" fill="white"/>
<path opacity="0.72" d="M266.68 52.289L266.567 57.589C266.551 58.376 267.182 59.0242 267.97 59.0286L272.948 59.0567C273.719 59.061 274.35 58.4467 274.367 57.6769L274.484 52.17C274.501 51.3601 273.833 50.7022 273.022 50.7313L268.04 50.9101C267.292 50.9369 266.696 51.5419 266.68 52.289Z" fill="white"/>
<path opacity="0.72" d="M266.454 62.9279L266.346 68.0179C266.329 68.79 266.937 69.4316 267.71 69.4567L272.685 69.6195C273.471 69.6452 274.125 69.0251 274.142 68.2403L274.254 62.9787C274.271 62.1875 273.633 61.5376 272.841 61.5391L267.862 61.548C267.095 61.5495 266.47 62.1622 266.454 62.9279Z" fill="white"/>
<path d="M223.022 48.2147L223.251 49.8931C223.325 50.4306 223.778 50.8347 224.321 50.8462L224.4 50.848C225.009 50.8609 225.514 50.3778 225.527 49.7691L225.563 48.051C225.577 47.3852 225.002 46.859 224.339 46.9318L223.994 46.9698C223.378 47.0376 222.938 47.6003 223.022 48.2147Z" fill="white"/>
<path d="M230.818 47.7827L231.047 49.4611C231.121 49.9986 231.574 50.4027 232.117 50.4142L232.196 50.416C232.806 50.4289 233.31 49.9458 233.323 49.3371L233.359 47.619C233.373 46.9532 232.798 46.427 232.136 46.4998L231.79 46.5378C231.174 46.6055 230.734 47.1683 230.818 47.7827Z" fill="white"/>
<path d="M240.41 47.9147L240.639 49.5932C240.713 50.1306 241.167 50.5348 241.709 50.5463L241.789 50.548C242.398 50.5609 242.902 50.0779 242.915 49.4691L242.952 47.7511C242.966 47.0853 242.39 46.559 241.728 46.6319L241.383 46.6698C240.766 46.7376 240.326 47.3003 240.41 47.9147Z" fill="white"/>
<path d="M249.756 47.4966L249.985 49.175C250.059 49.7124 250.512 50.1166 251.055 50.1281L251.134 50.1297C251.743 50.1427 252.248 49.6596 252.261 49.0509L252.297 47.3329C252.311 46.6671 251.736 46.1408 251.074 46.2137L250.728 46.2516C250.111 46.3195 249.672 46.8821 249.756 47.4966Z" fill="white"/>
<path d="M259.355 46.2769L259.584 47.9553C259.657 48.4927 260.111 48.897 260.654 48.9085L260.733 48.9102C261.342 48.9231 261.846 48.4401 261.859 47.8313L261.896 46.1134C261.91 45.4475 261.335 44.9213 260.672 44.994L260.327 45.032C259.71 45.0998 259.271 45.6625 259.355 46.2769Z" fill="white"/>
<path d="M269.523 46.4923L269.752 48.1707C269.825 48.7081 270.279 49.1123 270.822 49.1238L270.901 49.1255C271.51 49.1384 272.015 48.6553 272.028 48.0466L272.064 46.3286C272.078 45.6627 271.503 45.1366 270.84 45.2094L270.495 45.2474C269.878 45.3152 269.439 45.8779 269.523 46.4923Z" fill="white"/>
<path d="M278.106 46.3128L278.335 47.9913C278.408 48.5286 278.862 48.9329 279.405 48.9444L279.484 48.9461C280.093 48.959 280.598 48.476 280.61 47.8672L280.647 46.1492C280.661 45.4833 280.086 44.9571 279.423 45.0299L279.078 45.0679C278.461 45.1357 278.022 45.6983 278.106 46.3128Z" fill="white"/>
<path d="M274.847 45.8507C274.826 45.4879 274.447 45.3326 274.167 45.5524C273.378 46.1732 273.058 47.1377 272.669 48.0371C272.216 49.0853 271.782 50.1416 271.396 51.2165C270.989 52.3496 270.643 53.5031 270.379 54.6744C269.855 53.2753 269.247 51.9125 268.475 50.6194C268.27 50.2761 267.692 50.4769 267.807 50.8846C268.474 53.2549 269.295 55.5771 269.924 57.9595C270.145 58.8001 271.296 58.6015 271.382 57.7937C271.616 55.5875 272.149 53.4769 272.906 51.3931C273.266 50.4024 273.667 49.4272 274.083 48.4592C274.452 47.6019 274.902 46.8027 274.847 45.8507Z" fill="url(#paint9_linear_45_5348)"/>
<path d="M275.931 47.6087C275.244 47.4804 274.995 48.3581 275.624 48.6347C279.788 50.4653 280.332 55.6238 277.324 58.7474C275.933 60.192 274.087 61.3133 272.339 62.2772C270.566 63.2548 268.587 64.0017 266.53 63.7952C261.761 63.3164 261.112 58.4662 262.538 54.7236C263.909 51.1239 266.846 48.345 270.442 47.0128C270.907 46.8408 270.727 46.0852 270.251 46.2558C266.877 47.4648 264.005 49.8496 262.227 52.9703C260.59 55.8409 259.609 59.8901 261.751 62.7717C263.967 65.7535 268.174 65.8069 271.344 64.5638C274.83 63.1965 279.172 60.6598 280.56 56.9786C282.014 53.1222 280.219 48.4105 275.931 47.6087Z" fill="url(#paint10_linear_45_5348)"/>
<path d="M293.043 93.7189C292.944 93.7189 292.863 93.6389 292.863 93.5396L292.643 61.8713C292.643 61.7715 292.723 61.6902 292.823 61.6895H292.824C292.923 61.6895 293.004 61.7694 293.004 61.8687L293.224 93.5371C293.224 93.6368 293.144 93.7181 293.044 93.7189H293.043Z" fill="#91B3FA"/>
<path d="M292.774 54.7792C292.675 54.7792 292.594 54.6991 292.593 54.5998L292.517 43.5395C292.516 43.4398 292.596 43.3584 292.696 43.3578H292.697C292.796 43.3578 292.877 43.4378 292.878 43.5371L292.954 54.5975C292.955 54.6972 292.875 54.7785 292.775 54.7792H292.774Z" fill="#91B3FA"/>
<path d="M224.943 45.493C226.009 45.493 226.874 44.6291 226.874 43.5634C226.874 42.4978 226.009 41.6339 224.943 41.6339C223.876 41.6339 223.012 42.4978 223.012 43.5634C223.012 44.6291 223.876 45.493 224.943 45.493Z" fill="#91B3FA"/>
<path d="M240.764 45.3445C241.831 45.3445 242.695 44.4807 242.695 43.415C242.695 42.3494 241.831 41.4855 240.764 41.4855C239.698 41.4855 238.833 42.3494 238.833 43.415C238.833 44.4807 239.698 45.3445 240.764 45.3445Z" fill="#91B3FA"/>
<path d="M256.734 44.825C257.801 44.825 258.665 43.9611 258.665 42.8955C258.665 41.8298 257.801 40.9659 256.734 40.9659C255.668 40.9659 254.803 41.8298 254.803 42.8955C254.803 43.9611 255.668 44.825 256.734 44.825Z" fill="#91B3FA"/>
<path d="M272.555 44.0827C273.622 44.0827 274.486 43.2188 274.486 42.1532C274.486 41.0875 273.622 40.2236 272.555 40.2236C271.489 40.2236 270.625 41.0875 270.625 42.1532C270.625 43.2188 271.489 44.0827 272.555 44.0827Z" fill="#91B3FA"/>
<path d="M274.024 28.7826C270.775 29.491 271.081 38.0337 271.343 41.5018C271.404 42.3179 272.085 42.9474 272.904 42.9474C273.131 42.9474 273.348 42.8496 273.5 42.6805C273.652 42.5114 273.724 42.2853 273.7 42.0593C273.419 39.4379 272.822 31.8891 275.214 31.4855C275.214 31.4855 276.93 31.1821 277.219 34.5035H279.075C279.075 34.5035 278.11 27.8918 274.024 28.7826Z" fill="#7D97F4"/>
<path d="M258.203 29.2219C254.953 29.9303 255.26 38.476 255.521 41.9441C255.583 42.7602 256.263 43.3914 257.082 43.3914C257.31 43.3914 257.526 43.2943 257.678 43.1252C257.83 42.9561 257.903 42.7303 257.878 42.5044C257.598 39.883 257 32.3283 259.393 31.9247C259.393 31.9247 261.109 31.6876 261.397 34.9368H263.254C263.254 34.9368 262.288 28.3313 258.203 29.2219Z" fill="#7D97F4"/>
<path d="M242.381 29.6632C239.132 30.3716 239.438 38.9192 239.7 42.3875C239.761 43.2035 240.442 43.8357 241.261 43.8357C241.488 43.8357 241.705 43.7391 241.857 43.57C242.008 43.4008 242.081 43.1753 242.057 42.9493C241.776 40.328 241.179 32.7695 243.571 32.3659C243.571 32.3659 245.286 32.1729 245.575 35.4386L247.432 35.3741C247.432 35.3741 246.466 28.7725 242.381 29.6632Z" fill="#7D97F4"/>
<path d="M226.56 30.1737C223.31 30.8821 223.617 39.4344 223.879 42.9025C223.94 43.7186 224.62 44.353 225.439 44.353C225.667 44.353 225.883 44.2576 226.035 44.0885C226.187 43.9195 226.26 43.6944 226.236 43.4685C225.955 40.8471 225.358 33.2797 227.75 32.8761C227.75 32.8761 229.466 32.6263 229.754 35.8755H231.611C231.611 35.8755 230.645 29.283 226.56 30.1737Z" fill="#7D97F4"/>
<path d="M126.148 135.905H73.318C71.1851 135.905 69.4561 134.325 69.4561 132.375V100.927C69.4561 99.0538 71.0568 97.5066 73.1031 97.4023L127.972 94.6066C130.269 94.4895 132.168 96.2231 132.043 98.3234L130.005 132.567C129.893 134.439 128.2 135.905 126.148 135.905Z" fill="#91B3FA"/>
<path d="M100.967 116.929L129.845 94.9432C129.282 94.6975 128.644 94.5722 127.972 94.6065L73.1031 97.4023C72.1595 97.4504 71.3113 97.8058 70.6704 98.358L92.2836 116.733C94.6299 118.728 98.4898 118.815 100.967 116.929Z" fill="#BDD0FB"/>
<path opacity="0.72" d="M96.9518 115.84C95.5159 115.84 94.0868 115.37 92.9383 114.443L84.7948 107.871C84.5558 107.679 84.5331 107.345 84.7441 107.127C84.9551 106.908 85.3202 106.887 85.5588 107.08L93.7022 113.652C95.4322 115.048 97.949 115.164 99.8233 113.932L104.043 111.16C104.303 110.99 104.662 111.044 104.849 111.28C105.035 111.517 104.976 111.847 104.717 112.017L100.497 114.79C99.4268 115.492 98.1868 115.84 96.9518 115.84Z" fill="white"/>
<path opacity="0.72" d="M82.1474 105.558C82.0115 105.558 81.8753 105.515 81.7656 105.426L80.6693 104.542C80.4303 104.349 80.4076 104.015 80.6186 103.797C80.8294 103.578 81.1943 103.558 81.4333 103.751L82.5296 104.635C82.7685 104.828 82.7913 105.161 82.5803 105.38C82.4662 105.498 82.3071 105.558 82.1474 105.558Z" fill="white"/>
<path d="M264.612 140.974V165.153C264.612 168.025 266.871 170.391 269.743 170.526L300.002 171.947C303.071 172.091 305.638 169.643 305.638 166.573V140.974C305.638 138.003 303.227 135.594 300.254 135.594H269.995C267.022 135.594 264.612 138.003 264.612 140.974Z" fill="#91B3FA"/>
<path opacity="0.72" d="M275.574 166.016C275.182 166.016 274.852 166.011 274.59 166.006C274.144 165.997 273.777 165.668 273.72 165.224C273.663 164.777 273.936 164.364 274.37 164.242C276.694 163.591 279.228 162.485 281.094 161.59C272.196 160.865 270.419 156.298 270.076 154.209C269.21 148.942 273.785 142.981 280.275 140.922C286.898 138.823 293.606 139.579 297.368 142.851C299.367 144.589 301.535 147.918 300.513 153.909C298.601 165.118 281.108 166.016 275.574 166.016ZM274.624 164.392H274.626C274.626 164.392 274.625 164.392 274.624 164.392ZM287.479 160.009L284.66 161.58C284.512 161.662 282.031 163.037 279.013 164.298C285.882 163.884 297.504 161.945 298.921 153.638C299.64 149.421 298.761 146.201 296.308 144.068C292.503 140.758 285.76 140.877 280.764 142.46C275.105 144.256 270.941 149.516 271.669 153.948C272.331 157.971 276.916 160.222 284.253 160.068L287.479 160.009Z" fill="white"/>
<path d="M155.564 284.211H124.213C121.816 284.211 119.872 282.711 119.872 280.862V256.612C119.872 254.867 121.608 253.415 123.863 253.274L157.265 251.188C159.897 251.024 162.107 252.694 161.949 254.727L159.897 281.063C159.76 282.831 157.86 284.211 155.564 284.211Z" fill="#91B3FA"/>
<path opacity="0.72" d="M128.677 279.386C127.806 279.386 126.991 279.082 126.421 278.538C125.957 278.093 125.7 277.523 125.7 276.929V261.382C125.7 261.002 126.009 260.693 126.39 260.693C126.771 260.693 127.079 261.002 127.079 261.382V276.929C127.079 277.203 127.24 277.413 127.374 277.541C127.705 277.858 128.234 278.03 128.786 278.006L152.668 276.908C153.494 276.871 154.165 276.387 154.165 275.832V260.568C154.165 260.287 153.998 260.074 153.857 259.943C153.508 259.62 152.961 259.452 152.39 259.496L132.523 261.014C131.715 261.076 131.274 261.493 131.143 261.832C131.034 262.112 131.104 262.395 131.344 262.652L138.922 270.718C139.219 271.035 139.717 271.227 140.254 271.232C140.796 271.222 141.304 271.05 141.612 270.734L149.959 262.155C150.224 261.882 150.661 261.876 150.934 262.141C151.207 262.406 151.213 262.843 150.948 263.115L142.601 271.694C142.027 272.284 141.171 272.608 140.242 272.609C139.322 272.601 138.474 272.256 137.916 271.662L130.338 263.595C129.736 262.953 129.556 262.107 129.857 261.333C130.227 260.381 131.208 259.732 132.418 259.64L152.285 258.122C153.229 258.05 154.168 258.353 154.794 258.933C155.278 259.38 155.544 259.961 155.544 260.568V275.832C155.544 277.135 154.309 278.213 152.732 278.285L128.849 279.382C128.792 279.385 128.734 279.386 128.677 279.386Z" fill="white"/>
<path d="M57.5989 156.111C57.5989 156.111 54.0434 157.84 53.3896 159.825C52.8651 161.418 48.9336 161.623 48.5452 164.756C48.3447 166.373 47.1469 167.669 45.5346 167.915C41.5192 168.53 35.3312 170.614 34.3411 177.58C33.5853 182.898 36.2981 184.914 39.145 185.612C41.236 186.124 42.6256 188.157 42.2027 190.266C41.797 192.289 42.4019 194.628 45.9098 196.478C53.7706 200.623 61.6209 186.659 61.6209 186.659L63.2297 162.277L57.5989 156.111Z" fill="url(#paint11_linear_45_5348)"/>
<path d="M100.371 150.331C100.371 150.331 84.6763 175.138 66.0129 179.929C66.0129 179.929 69.6496 190.28 72.4565 191.464C72.4565 191.464 95.4178 172.32 101.318 153.856L100.371 150.331Z" fill="url(#paint12_linear_45_5348)"/>
<path d="M25.2877 308.996L24.779 313.174C24.6825 313.967 24.0579 314.594 23.2639 314.684C21.9233 314.837 19.7721 314.994 17.6673 314.772C16.7433 314.674 16.1437 313.74 16.4251 312.855C16.9382 311.242 17.8769 308.82 19.2303 307.395H23.8692C24.7268 307.395 25.3912 308.145 25.2877 308.996Z" fill="url(#paint13_linear_45_5348)"/>
<path d="M61.6207 260.046L62.4037 264.648C62.4037 264.648 59.7817 291.187 59.3153 301.802C59.2422 303.467 59.6731 305.112 60.5473 306.53L65.1065 313.928L53.5193 307.096L53.2886 305.683L55.1854 303.077L52.7009 273.347C52.5549 271.6 52.9155 269.849 53.7397 268.302L56.1364 263.803L61.6207 260.046Z" fill="url(#paint14_linear_45_5348)"/>
<path d="M65.8696 315H62.1719C61.4798 315 60.8271 314.682 60.4049 314.134C59.2522 312.638 56.8638 309.717 55.7218 309.641C54.1844 309.539 54.3811 315 54.3811 315H53.5194L52.4279 308.214C52.1532 306.506 53.003 304.814 54.5374 304.015C54.5374 304.015 54.8888 306.611 56.7944 307.76C58.6999 308.909 64.5487 313.023 64.5487 313.023C64.5487 313.023 65.2651 312.921 66.0515 313.063C67.2182 313.274 67.0552 315 65.8696 315Z" fill="url(#paint15_linear_45_5348)"/>
<path d="M45.7501 262.231C45.7501 262.231 30.3895 291.347 27.9478 297.995C25.5061 304.642 24.6508 310.188 24.618 310.713C24.5668 311.534 23.5455 312.321 20.73 312.321C19.277 312.321 18.5654 311.739 18.217 311.175C17.9197 310.695 17.9044 310.093 18.1549 309.587C19.0434 307.79 21.8632 302.048 22.9075 299.443C24.1544 296.334 26.8364 282.241 28.3072 277.342C29.7781 272.442 31.4407 267.127 37.8462 262.231C37.8462 262.231 42.2433 257.928 45.7501 262.231Z" fill="url(#paint16_linear_45_5348)"/>
<path d="M55.4538 214.524C59.4161 197.747 49.3784 188.258 49.3784 188.258C55.712 182.183 67.2518 179.418 67.2518 179.418C67.2518 179.418 78.2633 187.463 76.9571 193.759C76.1914 197.449 69.217 215.864 69.217 215.864C69.217 215.864 62.7677 218.914 55.4538 214.524Z" fill="url(#paint17_linear_45_5348)"/>
<path d="M46.6688 222.83C48.2813 217.976 55.4539 214.524 55.4539 214.524C62.7679 218.914 69.2171 215.864 69.2171 215.864C69.2171 215.864 70.6634 221.388 69.6651 226.522C68.6669 231.655 62.4041 264.648 62.4041 264.648C52.5359 266.646 37.3589 262.638 37.3589 262.638C43.6443 251.486 45.0563 227.684 46.6688 222.83Z" fill="url(#paint18_linear_45_5348)"/>
<path d="M60.0529 168.331L56.8314 182.791C56.523 184.064 57.685 183.856 58.9735 183.613C61.0839 183.216 63.8037 182.397 64.7129 180.756C64.8055 180.589 64.8517 180.4 64.8778 180.211L66.2617 170.185C66.3715 169.389 65.9412 168.617 65.2066 168.291L62.5359 167.108C61.5077 166.653 60.3175 167.239 60.0529 168.331Z" fill="url(#paint19_linear_45_5348)"/>
<path d="M66.2231 155.15C66.2231 155.15 69.6527 157.47 71.1264 163.378C72.6002 169.285 70.2052 171.404 67.7504 171.275C65.2954 171.145 61.736 170.386 58.652 166.148C55.5678 161.91 61.7289 152.315 66.2231 155.15Z" fill="url(#paint20_linear_45_5348)"/>
<path d="M61.762 163.765C61.762 163.765 60.5054 155.3 67.539 156.595L68.9612 158.074C68.9612 158.074 72.4039 154.2 68.5941 151.271C64.7842 148.343 59.4973 149.093 56.5723 154.424C53.6474 159.756 52.5857 163.502 55.0374 166.815C57.4892 170.128 59.3332 167.287 59.3332 167.287C59.3332 167.287 58.2089 164.419 59.1418 163.189C60.0748 161.959 61.2784 163.904 61.2784 163.904L61.762 163.765Z" fill="url(#paint21_linear_45_5348)"/>
<path d="M60.8007 164.49C60.8007 164.49 60.1802 160.135 57.9543 161.38C55.7283 162.625 58.7566 165.448 59.9707 166.409L60.8007 164.49Z" fill="url(#paint22_linear_45_5348)"/>
<path d="M100.264 155.438C100.311 155.95 98.407 156.304 97.801 154.122C97.9676 153.175 98.2635 149.027 98.9902 148.383C102.861 144.951 109.763 141.091 109.763 141.091C110.535 142.269 109.522 143.044 109.522 143.044L106.077 145.368C106.436 146.557 106.961 147.609 107.02 148.967C107.065 149.995 106.685 151.002 106.002 151.782C105.316 152.565 104.393 153.575 103.561 154.343C101.986 155.795 100.264 155.438 100.264 155.438Z" fill="url(#paint23_linear_45_5348)"/>
<path d="M102.135 153.747L101.609 153.531C101.679 153.36 103.332 149.346 104.132 148.511C104.436 148.194 104.582 147.923 104.569 147.704C104.562 147.585 104.503 147.468 104.392 147.349L101.604 148.839L100.373 150.766L99.8931 150.459L101.204 148.407L104.47 146.662L104.617 146.782C104.947 147.052 105.118 147.342 105.138 147.669C105.162 148.058 104.968 148.462 104.544 148.905C103.941 149.533 102.601 152.613 102.135 153.747Z" fill="url(#paint24_linear_45_5348)"/>
<path d="M59.044 223.375C59.066 223.376 59.088 223.377 59.1102 223.377L87.8898 223.345C88.6012 223.345 89.1773 222.774 89.1766 222.071C89.1759 221.367 88.5964 220.786 87.887 220.798L59.1074 220.829C58.396 220.83 57.8198 221.401 57.8206 222.104C57.8213 222.786 58.3633 223.342 59.044 223.375Z" fill="url(#paint25_linear_45_5348)"/>
<path d="M113.761 197.54H89.7934C88.0253 197.54 86.4159 198.549 85.6618 200.13L74.5815 223.36H104.367C105.507 223.36 106.53 222.672 106.949 221.624L115.541 200.128C116.038 198.887 115.112 197.54 113.761 197.54Z" fill="url(#paint26_linear_45_5348)"/>
<path d="M100.45 210.61C100.975 209.016 100.599 207.461 99.6099 207.135C98.6204 206.809 97.3923 207.836 96.8668 209.43C96.3413 211.023 96.7174 212.579 97.7068 212.905C98.6962 213.231 99.9243 212.203 100.45 210.61Z" fill="#91B3FA"/>
<path d="M49.3368 188.292C45.41 192.252 40.4278 209.802 42.8997 212.734C45.0761 216.147 52.4868 220.792 59.5435 220.798H69.9551C65.5802 216.153 62.5679 214.975 58.98 218.223C56.1332 217.008 52.442 212.299 49.9782 210.197C49.0109 209.372 48.7826 207.964 49.4295 206.869C51.3867 203.558 53.8414 200.154 54.622 196.857C54.7895 192.993 51.9282 188.571 49.3368 188.292Z" fill="url(#paint27_linear_45_5348)"/>
<path d="M273.624 280.988C275.266 281.315 284.621 286.878 284.621 280.518C284.621 279.919 284.621 273.413 284.621 273.413C284.621 273.413 273.152 280.895 273.624 280.988Z" fill="url(#paint28_linear_45_5348)"/>
<path d="M240.794 311.514C240.794 311.514 238.62 309.712 235.729 309.974C233.714 310.327 231.35 312.108 229.826 313.429C229.56 313.66 229.471 314.027 229.602 314.348C229.733 314.67 230.056 314.879 230.412 314.871C234.191 314.793 241.585 314.569 241.585 314.012C241.585 313.264 240.794 311.514 240.794 311.514Z" fill="url(#paint29_linear_45_5348)"/>
<path d="M242.291 308.337L240.557 311.611C240.557 311.611 236.638 311.932 236.766 310.391C236.895 308.85 237.858 306.989 237.858 306.989L242.291 308.337Z" fill="url(#paint30_linear_45_5348)"/>
<path d="M286.585 310.566C283.867 295.739 284.305 286.701 284.305 286.701C284.305 286.701 251.768 266.801 248.684 271.551C245.6 276.302 236.763 308.722 236.763 308.722L242.655 310.327C242.655 310.327 253.92 295.081 254.948 282.064C257.848 291.557 260.55 314.244 282.863 314.895C283.971 314.927 285.033 314.457 285.755 313.617C286.478 312.777 286.785 311.655 286.585 310.566Z" fill="url(#paint31_linear_45_5348)"/>
<path d="M221.476 310.199L217.878 313.601L215.051 310.776L218.778 306.475L221.476 310.199Z" fill="url(#paint32_linear_45_5348)"/>
<path d="M300.648 236.353L303.652 247.415C303.79 247.922 303.62 248.47 303.224 248.77C301.778 249.863 297.998 252.038 292.812 249.925C292.219 249.683 291.813 249.071 291.761 248.376L291.049 238.739L300.648 236.353Z" fill="url(#paint33_linear_45_5348)"/>
<path d="M283.065 227.43C283.065 227.43 283.654 237.896 287.358 241.415C291.062 244.934 299.011 243.199 302.293 235.627L298.218 221.853L283.065 227.43Z" fill="url(#paint34_linear_45_5348)"/>
<path d="M297.041 231.235C296.73 231.306 296.43 231.086 296.41 230.768C296.348 229.801 296.151 227.881 295.535 226.533C295.535 226.533 296.03 225.208 292.045 226.933C288.059 228.658 282.079 231.181 278.862 229.1C275.726 227.073 273.149 217.992 281.693 220.362C282.018 220.452 282.344 220.215 282.348 219.878C282.364 218.423 282.792 215.109 286.254 214.329C289.493 213.599 291.099 215.169 291.737 216.088C291.925 216.359 292.314 216.387 292.536 216.144C293.586 214.991 296.376 212.586 300.012 214.572C303.006 216.208 303.327 218.164 303.173 219.353C303.124 219.738 303.494 220.034 303.86 219.902C304.85 219.544 306.402 219.447 307.714 221.411C309.527 224.125 306.438 226.082 305.518 226.585C305.368 226.668 305.266 226.817 305.25 226.988C305.129 228.309 304.666 234.196 301.496 237.202C301.222 237.462 300.531 237.201 300.415 236.841L298.641 231.35C298.559 231.095 298.295 230.946 298.034 231.006L297.041 231.235Z" fill="url(#paint35_linear_45_5348)"/>
<path d="M296.602 231.986C296.602 231.986 298.434 226.568 300.346 228.541C302.258 230.514 299.317 234.246 296.886 234.798L296.602 231.986Z" fill="url(#paint36_linear_45_5348)"/>
<path d="M219.633 311.942C218.753 311.952 215.051 310.327 215.051 310.327L211.604 311.247C208.599 310.785 206.018 311.808 204.278 312.847C203.898 313.074 203.716 313.526 203.831 313.953C203.945 314.381 204.329 314.68 204.772 314.688C208.175 314.744 213.763 314.801 216.593 314.632C220.834 314.378 221.476 314.5 219.633 311.942Z" fill="url(#paint37_linear_45_5348)"/>
<path d="M249.394 275.377L241.941 250.541C241.637 249.528 240.736 248.809 239.68 248.737L229.618 248.049C228.595 247.979 227.834 248.977 228.174 249.944L236.505 273.662C236.774 274.426 237.46 274.967 238.266 275.048L248.175 276.147L249.394 275.377Z" fill="url(#paint38_linear_45_5348)"/>
<path d="M248.175 276.147C248.192 276.147 248.208 276.147 248.224 276.146L269.338 275.08C269.86 275.054 270.261 274.609 270.235 274.088C270.209 273.566 269.762 273.156 269.242 273.191L248.129 274.258C247.607 274.284 247.205 274.728 247.231 275.25C247.257 275.755 247.675 276.147 248.175 276.147Z" fill="url(#paint39_linear_45_5348)"/>
<path d="M279.574 273.154C279.574 273.154 275.434 278.482 263.587 271.598C263.587 271.598 260.239 268.519 256.792 268.865C253.345 269.21 250.844 273.896 250.844 273.896L257.496 273.76C257.496 273.76 266.731 284.957 286.038 284.957C286.579 280.665 282.163 277.024 279.574 273.154Z" fill="url(#paint40_linear_45_5348)"/>
<path d="M295.971 246.108C293.451 246.662 290.654 249.325 288.676 251.568C287.089 253.368 285.942 255.464 285.269 257.766C283.754 262.954 280.438 273.106 278.244 274.077C283.213 281.128 284.05 283.435 284.05 283.435C283.116 291.849 281.16 293.532 281.16 293.532C281.16 293.532 290.865 303.158 302.618 305.897C313.322 298.022 314.959 275.494 314.959 275.494C315.798 248.775 303.448 244.465 295.971 246.108Z" fill="url(#paint41_linear_45_5348)"/>
<path d="M283.96 283.717C283.892 283.717 283.825 283.689 283.777 283.634C283.69 283.533 283.701 283.38 283.802 283.293C283.899 283.209 293.547 274.792 296.144 263.988C296.175 263.859 296.306 263.779 296.435 263.81C296.565 263.841 296.645 263.971 296.614 264.101C293.98 275.059 284.216 283.574 284.118 283.659C284.072 283.698 284.016 283.717 283.96 283.717Z" fill="url(#paint42_linear_45_5348)"/>
<path d="M302.618 305.897C302.618 305.897 297.8 320.213 274.018 312.189C262.486 308.298 246.339 285.739 246.339 285.739C246.339 285.739 242.356 296.653 221.54 311.29L216.915 307.139C216.915 307.139 237.987 270.846 248.78 274.612C259.574 278.378 305.916 296.61 302.618 305.897Z" fill="url(#paint43_linear_45_5348)"/>
<path d="M230.629 249.848L238.743 272.447L247.359 272.223L240.491 250.541L230.629 249.848Z" fill="#BDD0FB"/>
</g>
<defs>
<filter id="filter0_d_45_5348" x="0.000244141" y="-3.05176e-05" width="350" height="350" filterUnits="userSpaceOnUse" color-interpolation-filters="sRGB">
<feFlood flood-opacity="0" result="BackgroundImageFix"/>
<feColorMatrix in="SourceAlpha" type="matrix" values="0 0 0 0 0 0 0 0 0 0 0 0 0 0 0 0 0 0 127 0" result="hardAlpha"/>
<feOffset dx="10" dy="10"/>
<feGaussianBlur stdDeviation="12.5"/>
<feComposite in2="hardAlpha" operator="out"/>
<feColorMatrix type="matrix" values="0 0 0 0 0 0 0 0 0 0 0 0 0 0 0 0 0 0 0.3 0"/>
<feBlend mode="normal" in2="BackgroundImageFix" result="effect1_dropShadow_45_5348"/>
<feBlend mode="normal" in="SourceGraphic" in2="effect1_dropShadow_45_5348" result="shape"/>
</filter>
<linearGradient id="paint0_linear_45_5348" x1="336.721" y1="316.989" x2="120.761" y2="127.882" gradientUnits="userSpaceOnUse">
<stop stop-color="#DAE3FE"/>
<stop offset="1" stop-color="#E9EFFD"/>
</linearGradient>
<linearGradient id="paint1_linear_45_5348" x1="79.1553" y1="67.1295" x2="396.174" y2="428.751" gradientUnits="userSpaceOnUse">
<stop stop-color="#09005D"/>
<stop offset="1" stop-color="#1A0F91"/>
</linearGradient>
<linearGradient id="paint2_linear_45_5348" x1="229.752" y1="163.937" x2="446.021" y2="163.937" gradientUnits="userSpaceOnUse">
<stop stop-color="#4F52FF"/>
<stop offset="1" stop-color="#4042E2"/>
</linearGradient>
<linearGradient id="paint3_linear_45_5348" x1="304.255" y1="-76.7357" x2="256.34" y2="34.4231" gradientUnits="userSpaceOnUse">
<stop stop-color="#4F52FF"/>
<stop offset="1" stop-color="#4042E2"/>
</linearGradient>
<linearGradient id="paint4_linear_45_5348" x1="-687.225" y1="569.364" x2="-536.726" y2="508.159" gradientUnits="userSpaceOnUse">
<stop stop-color="#FF928E"/>
<stop offset="1" stop-color="#FE7062"/>
</linearGradient>
<linearGradient id="paint5_linear_45_5348" x1="-594.013" y1="544.81" x2="-454.25" y2="461.978" gradientUnits="userSpaceOnUse">
<stop stop-color="#FF928E"/>
<stop offset="1" stop-color="#FE7062"/>
</linearGradient>
<linearGradient id="paint6_linear_45_5348" x1="-536.096" y1="-1105.9" x2="-614.507" y2="-1248.13" gradientUnits="userSpaceOnUse">
<stop stop-color="#FF928E"/>
<stop offset="1" stop-color="#FE7062"/>
</linearGradient>
<linearGradient id="paint7_linear_45_5348" x1="294.316" y1="30.934" x2="292.87" y2="84.8015" gradientUnits="userSpaceOnUse">
<stop stop-color="#09005D"/>
<stop offset="1" stop-color="#1A0F91"/>
</linearGradient>
<linearGradient id="paint8_linear_45_5348" x1="214.647" y1="34.55" x2="315.143" y2="114.543" gradientUnits="userSpaceOnUse">
<stop stop-color="#09005D"/>
<stop offset="1" stop-color="#1A0F91"/>
</linearGradient>
<linearGradient id="paint9_linear_45_5348" x1="285.459" y1="4.34503" x2="264.77" y2="69.5446" gradientUnits="userSpaceOnUse">
<stop stop-color="#FF928E"/>
<stop offset="1" stop-color="#FE7062"/>
</linearGradient>
<linearGradient id="paint10_linear_45_5348" x1="287.153" y1="4.88264" x2="266.464" y2="70.0823" gradientUnits="userSpaceOnUse">
<stop stop-color="#FF928E"/>
<stop offset="1" stop-color="#FE7062"/>
</linearGradient>
<linearGradient id="paint11_linear_45_5348" x1="31.8932" y1="204.285" x2="58.0339" y2="166.68" gradientUnits="userSpaceOnUse">
<stop stop-color="#E1473D"/>
<stop offset="1" stop-color="#E9605A"/>
</linearGradient>
<linearGradient id="paint12_linear_45_5348" x1="88.6513" y1="162.038" x2="60.2955" y2="201.263" gradientUnits="userSpaceOnUse">
<stop stop-color="#FEBBBA"/>
<stop offset="1" stop-color="#FF928E"/>
</linearGradient>
<linearGradient id="paint13_linear_45_5348" x1="25.2983" y1="311.139" x2="16.3551" y2="311.139" gradientUnits="userSpaceOnUse">
<stop stop-color="#09005D"/>
<stop offset="1" stop-color="#1A0F91"/>
</linearGradient>
<linearGradient id="paint14_linear_45_5348" x1="63.0876" y1="346.38" x2="50.2368" y2="196.074" gradientUnits="userSpaceOnUse">
<stop stop-color="#FEBBBA"/>
<stop offset="1" stop-color="#FF928E"/>
</linearGradient>
<linearGradient id="paint15_linear_45_5348" x1="66.8474" y1="309.507" x2="52.3767" y2="309.507" gradientUnits="userSpaceOnUse">
<stop stop-color="#09005D"/>
<stop offset="1" stop-color="#1A0F91"/>
</linearGradient>
<linearGradient id="paint16_linear_45_5348" x1="37.1992" y1="348.616" x2="24.345" y2="198.271" gradientUnits="userSpaceOnUse">
<stop stop-color="#FEBBBA"/>
<stop offset="1" stop-color="#FF928E"/>
</linearGradient>
<linearGradient id="paint17_linear_45_5348" x1="49.3783" y1="198.157" x2="77.0646" y2="198.157" gradientUnits="userSpaceOnUse">
<stop stop-color="#DAE3FE"/>
<stop offset="1" stop-color="#E9EFFD"/>
</linearGradient>
<linearGradient id="paint18_linear_45_5348" x1="37.3587" y1="239.865" x2="70.0163" y2="239.865" gradientUnits="userSpaceOnUse">
<stop stop-color="#4F52FF"/>
<stop offset="1" stop-color="#4042E2"/>
</linearGradient>
<linearGradient id="paint19_linear_45_5348" x1="64.4991" y1="198.225" x2="62.0851" y2="180.551" gradientUnits="userSpaceOnUse">
<stop stop-color="#FEBBBA"/>
<stop offset="1" stop-color="#FF928E"/>
</linearGradient>
<linearGradient id="paint20_linear_45_5348" x1="68.8037" y1="176.941" x2="55.4246" y2="136.043" gradientUnits="userSpaceOnUse">
<stop stop-color="#FEBBBA"/>
<stop offset="1" stop-color="#FF928E"/>
</linearGradient>
<linearGradient id="paint21_linear_45_5348" x1="30.1444" y1="203.07" x2="56.2852" y2="165.464" gradientUnits="userSpaceOnUse">
<stop stop-color="#E1473D"/>
<stop offset="1" stop-color="#E9605A"/>
</linearGradient>
<linearGradient id="paint22_linear_45_5348" x1="63.9091" y1="178.543" x2="50.53" y2="137.645" gradientUnits="userSpaceOnUse">
<stop stop-color="#FEBBBA"/>
<stop offset="1" stop-color="#FF928E"/>
</linearGradient>
<linearGradient id="paint23_linear_45_5348" x1="92.0591" y1="164.502" x2="63.7033" y2="203.727" gradientUnits="userSpaceOnUse">
<stop stop-color="#FEBBBA"/>
<stop offset="1" stop-color="#FF928E"/>
</linearGradient>
<linearGradient id="paint24_linear_45_5348" x1="99.893" y1="150.205" x2="105.139" y2="150.205" gradientUnits="userSpaceOnUse">
<stop stop-color="#FEBBBA"/>
<stop offset="1" stop-color="#FF928E"/>
</linearGradient>
<linearGradient id="paint25_linear_45_5348" x1="54.1628" y1="215.748" x2="77.0036" y2="223.245" gradientUnits="userSpaceOnUse">
<stop stop-color="#09005D"/>
<stop offset="1" stop-color="#1A0F91"/>
</linearGradient>
<linearGradient id="paint26_linear_45_5348" x1="85.6051" y1="200.964" x2="101.947" y2="218.249" gradientUnits="userSpaceOnUse">
<stop stop-color="#09005D"/>
<stop offset="1" stop-color="#1A0F91"/>
</linearGradient>
<linearGradient id="paint27_linear_45_5348" x1="20.0846" y1="221.083" x2="70.6344" y2="199.92" gradientUnits="userSpaceOnUse">
<stop stop-color="#FEBBBA"/>
<stop offset="1" stop-color="#FF928E"/>
</linearGradient>
<linearGradient id="paint28_linear_45_5348" x1="282.773" y1="275.807" x2="275.264" y2="287.239" gradientUnits="userSpaceOnUse">
<stop stop-color="#FDF53F"/>
<stop offset="0.6645" stop-color="#E57A58"/>
<stop offset="1" stop-color="#D93C65"/>
</linearGradient>
<linearGradient id="paint29_linear_45_5348" x1="239.909" y1="308.44" x2="231.104" y2="319.519" gradientUnits="userSpaceOnUse">
<stop stop-color="#09005D"/>
<stop offset="1" stop-color="#1A0F91"/>
</linearGradient>
<linearGradient id="paint30_linear_45_5348" x1="241.543" y1="306.365" x2="236.43" y2="312.8" gradientUnits="userSpaceOnUse">
<stop stop-color="#FEBBBA"/>
<stop offset="1" stop-color="#FF928E"/>
</linearGradient>
<linearGradient id="paint31_linear_45_5348" x1="399.737" y1="391.042" x2="315.278" y2="334.331" gradientUnits="userSpaceOnUse">
<stop stop-color="#4F52FF"/>
<stop offset="1" stop-color="#4042E2"/>
</linearGradient>
<linearGradient id="paint32_linear_45_5348" x1="216.827" y1="305.45" x2="220.039" y2="316.728" gradientUnits="userSpaceOnUse">
<stop stop-color="#FEBBBA"/>
<stop offset="1" stop-color="#FF928E"/>
</linearGradient>
<linearGradient id="paint33_linear_45_5348" x1="298.138" y1="251.705" x2="296.59" y2="237.765" gradientUnits="userSpaceOnUse">
<stop stop-color="#FEBBBA"/>
<stop offset="1" stop-color="#FF928E"/>
</linearGradient>
<linearGradient id="paint34_linear_45_5348" x1="289.674" y1="239.056" x2="297.543" y2="219.311" gradientUnits="userSpaceOnUse">
<stop stop-color="#FEBBBA"/>
<stop offset="1" stop-color="#FF928E"/>
</linearGradient>
<linearGradient id="paint35_linear_45_5348" x1="297.376" y1="203.006" x2="288.874" y2="235.164" gradientUnits="userSpaceOnUse">
<stop stop-color="#09005D"/>
<stop offset="1" stop-color="#1A0F91"/>
</linearGradient>
<linearGradient id="paint36_linear_45_5348" x1="294.551" y1="241.914" x2="302.419" y2="222.168" gradientUnits="userSpaceOnUse">
<stop stop-color="#FEBBBA"/>
<stop offset="1" stop-color="#FF928E"/>
</linearGradient>
<linearGradient id="paint37_linear_45_5348" x1="210.861" y1="309.041" x2="213.857" y2="319.559" gradientUnits="userSpaceOnUse">
<stop stop-color="#09005D"/>
<stop offset="1" stop-color="#1A0F91"/>
</linearGradient>
<linearGradient id="paint38_linear_45_5348" x1="249.394" y1="262.097" x2="228.092" y2="262.097" gradientUnits="userSpaceOnUse">
<stop stop-color="#09005D"/>
<stop offset="1" stop-color="#1A0F91"/>
</linearGradient>
<linearGradient id="paint39_linear_45_5348" x1="246.809" y1="271.401" x2="263.84" y2="276.073" gradientUnits="userSpaceOnUse">
<stop stop-color="#09005D"/>
<stop offset="1" stop-color="#1A0F91"/>
</linearGradient>
<linearGradient id="paint40_linear_45_5348" x1="269.291" y1="281.067" x2="248.573" y2="218.213" gradientUnits="userSpaceOnUse">
<stop stop-color="#FEBBBA"/>
<stop offset="1" stop-color="#FF928E"/>
</linearGradient>
<linearGradient id="paint41_linear_45_5348" x1="285.423" y1="210.514" x2="303.931" y2="312.93" gradientUnits="userSpaceOnUse">
<stop stop-color="#FF928E"/>
<stop offset="1" stop-color="#FE7062"/>
</linearGradient>
<linearGradient id="paint42_linear_45_5348" x1="283.718" y1="273.76" x2="296.62" y2="273.76" gradientUnits="userSpaceOnUse">
<stop stop-color="#E1473D"/>
<stop offset="1" stop-color="#E9605A"/>
</linearGradient>
<linearGradient id="paint43_linear_45_5348" x1="260.352" y1="300.306" x2="266.34" y2="231.123" gradientUnits="userSpaceOnUse">
<stop stop-color="#4F52FF"/>
<stop offset="1" stop-color="#4042E2"/>
</linearGradient>
</defs>
</svg>
