<svg width="30" height="31" viewBox="0 0 30 31" fill="none" xmlns="http://www.w3.org/2000/svg">
<path fill-rule="evenodd" clip-rule="evenodd" d="M9.66667 8.67605C9.66667 7.26156 10.2286 5.905 11.2288 4.90481C12.229 3.90462 13.5855 3.34271 15 3.34271C16.4145 3.34271 17.771 3.90462 18.7712 4.90481C19.7714 5.905 20.3333 7.26156 20.3333 8.67605C20.3333 10.0905 19.7714 11.4471 18.7712 12.4473C17.771 13.4475 16.4145 14.0094 15 14.0094C13.5855 14.0094 12.229 13.4475 11.2288 12.4473C10.2286 11.4471 9.66667 10.0905 9.66667 8.67605ZM9.66667 16.676C7.89856 16.676 6.20286 17.3784 4.95262 18.6287C3.70238 19.8789 3 21.5746 3 23.3427C3 24.4036 3.42143 25.421 4.17157 26.1711C4.92172 26.9213 5.93913 27.3427 7 27.3427H23C24.0609 27.3427 25.0783 26.9213 25.8284 26.1711C26.5786 25.421 27 24.4036 27 23.3427C27 21.5746 26.2976 19.8789 25.0474 18.6287C23.7971 17.3784 22.1014 16.676 20.3333 16.676H9.66667Z" fill="white"/>
</svg>
